<?xml version="1.0" encoding="UTF-8"?>
<svg width="85px" height="22px" viewBox="0 0 85 22" version="1.1" xmlns="http://www.w3.org/2000/svg" xmlns:xlink="http://www.w3.org/1999/xlink">
    <!-- Generator: Sketch 52.3 (67297) - http://www.bohemiancoding.com/sketch -->
    <title>Group 10</title>
    <desc>Created with Sketch.</desc>
    <g id="Page-1" stroke="none" stroke-width="1" fill="none" fill-rule="evenodd">
        <g id="Home" transform="translate(-819.000000, -2458.000000)" fill="#969DA5">
            <g id="S5_Brands" transform="translate(0.000000, 2431.000000)">
                <g id="B3" transform="translate(722.000000, 15.000000)">
                    <g id="Page-1" transform="translate(86.000000, 4.000000)">
                        <g id="Group-10" transform="translate(11.111111, 8.333333)">
                            <path d="M17.5949413,0.757164948 L0.615087342,0.757164948 L0.615087342,1.62516323 L1.5800358,1.72155498 C2.83351518,1.91429553 3.31659078,2.68590206 3.50877291,4.51880584 C3.79902205,7.99187285 3.70207188,14.2633935 3.50877291,17.2528694 C3.3159894,19.0863316 2.83411655,19.9548883 1.5800358,20.0501632 L0.615087342,20.2440206 L0.615087342,21.0156271 L11.5167626,21.0156271 L11.5167626,20.2440206 L10.3590736,20.0501632 C9.10499284,19.9543299 8.62256157,19.0863316 8.42977806,17.2528694 C8.33282789,15.9982302 8.2364791,13.9720275 8.2364791,11.4644244 L10.5518571,11.5607732 C11.9992368,11.5607732 12.6738932,12.7184622 12.9636269,14.358067 L13.8321406,14.358067 L13.8321406,7.51055842 L12.9636269,7.51055842 C12.6733348,9.15067869 11.9992368,10.3078093 10.5518571,10.3078093 L8.23703751,10.4047595 C8.23703751,7.12443299 8.33342927,4.03749141 8.43033648,2.20454467 L11.8064963,2.20454467 C14.4121234,2.20454467 15.762553,3.84414948 16.726943,6.73895189 L17.6918485,6.44921821 L17.5949413,0.757164948 Z M49.5283605,20.3409708 C49.1422351,20.3409708 48.6592454,20.3409708 48.3706286,20.2451375 C48.2737214,18.8946649 48.177888,13.2020533 48.2737214,8.1857732 C48.8525444,7.99243127 49.2381114,7.89608247 49.7211011,7.89608247 C51.8448124,7.89608247 53.0025444,10.404201 53.0025444,13.4906701 C53.001986,17.3509364 51.5546062,20.3409708 49.5283605,20.3409708 Z M51.7473468,6.352311 C50.3968743,6.352311 49.3361355,6.64200172 48.2748382,7.22026632 C48.2748382,4.13328179 48.2748382,1.33603093 48.3717884,0.371640893 L41.9075272,1.52877148 L41.9075272,2.1075945 L42.582742,2.20398625 C43.4502248,2.39676976 43.7409894,2.87868557 43.9320977,4.03693299 C44.1265564,6.352311 44.0290478,18.7008505 43.9320977,20.7270103 C45.6686097,21.1131357 47.5021148,21.4028265 49.335577,21.4028265 C54.4488073,21.4028265 57.5357918,18.2188918 57.5357918,13.2020533 C57.5357918,9.24707045 55.0276303,6.352311 51.7473468,6.352311 Z" id="Fill-2"></path>
                            <path d="M42.8713588,6.54562715 C41.231754,5.58179553 38.3369516,6.06315292 36.7937815,9.53677835 L36.8895719,6.16010309 L30.4264705,7.41418385 L30.4264705,7.99300687 L31.1016853,8.08939863 C31.9708004,8.1863488 32.355766,8.6682646 32.4527162,9.92286082 C32.6454568,12.2382388 32.549065,16.2907302 32.4527162,18.3164175 C32.355766,19.4729897 31.9708004,20.0518127 31.1016853,20.1487629 L30.4264705,20.2457131 L30.4264705,21.0173196 L39.3982918,21.0173196 L39.3982918,20.2457131 L38.2406028,20.1487629 C37.2762128,20.0518127 36.9865221,19.4729897 36.8895719,18.3164175 C36.6968313,16.4829124 36.6968313,12.8171048 36.7937815,10.5017268 C37.2756544,9.82591065 39.3982918,9.24764605 41.3275873,10.5017268 L42.8713588,6.54562715 Z M83.6813245,6.93170962 C82.5236355,6.44867698 80.9804224,6.15954467 79.2439104,6.15954467 C75.67501,6.15954467 73.454864,8.28162371 73.454864,10.7903007 C73.454864,13.2989777 75.0933519,14.3597595 77.4115221,15.1319244 C79.8227334,15.9993643 80.4985066,16.6751375 80.4985066,17.8328265 C80.4985066,18.9905155 79.6299499,20.0512973 78.0862214,20.0512973 C76.253876,20.0512973 74.9022867,18.9905155 73.8415049,16.095756 L73.1657317,16.2895704 L73.2626818,20.5342869 C74.4203708,21.0162027 76.5424069,21.4028007 78.3759121,21.4028007 C82.1386698,21.4028007 84.550998,19.4724313 84.550998,16.4823969 C84.550998,14.4561512 83.4890994,13.2989777 80.9809379,12.3335137 C78.2789619,11.2727749 77.3151733,10.5975601 77.3151733,9.34292096 C77.3151733,8.08884021 78.1848038,7.22028351 79.3424928,7.22028351 C81.077888,7.22028351 82.235577,8.28162371 83.1052935,10.8866924 L83.7799499,10.6939089 L83.6813245,6.93170962 Z M63.2267712,12.0449399 L67.7611355,11.9479897 C67.7611355,10.0186942 67.4714018,7.12449313 65.8318399,7.12449313 C64.1922781,7.12449313 63.3225616,9.82539519 63.2267712,12.0449399 Z M58.7893141,13.8778436 C58.7893141,9.92230241 61.2974757,6.15954467 66.2179224,6.15954467 C70.2687385,6.15954467 72.1991509,9.15069588 72.1991509,13.1056787 L63.2267712,13.1056787 C63.129821,16.6751375 64.866333,19.2802062 68.3399585,19.2802062 C69.8837729,19.2802062 70.6553794,18.8952835 71.6208434,18.2194674 L72.005809,18.7013832 C71.0409035,20.0518127 68.9188245,21.4034021 66.2179224,21.4034021 C61.8763416,21.4028007 58.7893141,18.3158162 58.7893141,13.8778436 Z M22.8045203,7.12449313 C20.6819258,7.12449313 20.1030599,10.0186942 20.1030599,13.7808935 C20.1030599,17.446744 21.0680083,20.4373368 22.9978623,20.4373368 C25.2151733,20.4373368 25.7951561,17.5431357 25.7951561,13.7808935 C25.7951561,10.1150859 24.8313245,7.12449313 22.8045203,7.12449313 Z M23.0942111,6.15954467 C27.918309,6.15954467 30.3300788,9.43982818 30.3300788,13.7808935 C30.3300788,17.9291753 27.6286183,21.4033591 22.8045203,21.4033591 C17.9810238,21.4033591 15.569254,18.1225172 15.569254,13.7808935 C15.569254,9.63261168 18.2701561,6.15954467 23.0942111,6.15954467 Z" id="Fill-4"></path>
                        </g>
                    </g>
                </g>
            </g>
        </g>
    </g>
</svg>