<?xml version="1.0" encoding="UTF-8"?>
<svg width="115px" height="19px" viewBox="0 0 115 19" version="1.1" xmlns="http://www.w3.org/2000/svg" xmlns:xlink="http://www.w3.org/1999/xlink">
    <!-- Generator: Sketch 52.3 (67297) - http://www.bohemiancoding.com/sketch -->
    <title>Group 11</title>
    <desc>Created with Sketch.</desc>
    <g id="Page-1" stroke="none" stroke-width="1" fill="none" fill-rule="evenodd">
        <g id="Home" transform="translate(-233.000000, -2462.000000)" fill="#969DA5">
            <g id="S5_Brands" transform="translate(0.000000, 2431.000000)">
                <g id="B1" transform="translate(150.000000, 15.000000)">
                    <g id="Group-11" transform="translate(83.000000, 16.000000)">
                        <path d="M112.355988,4.19092949 L113.979476,4.19092949 C113.807283,1.6081859 111.790194,0.157032051 108.248335,0.157032051 C104.829309,0.157032051 102.615488,2.12476282 102.615488,4.83048077 C102.615488,7.36400641 104.288194,8.51999359 107.658001,9.72533974 C109.404322,10.36475 110.683424,10.6600577 111.347655,11.1274167 C112.257694,11.7668269 112.675835,12.5293526 112.675835,13.5625064 C112.675835,15.5056987 110.904835,16.9321731 108.223655,16.9321731 C105.419501,16.9321731 103.919129,15.7024295 103.869912,13.488609 L102.172809,13.488609 C102.467976,16.6863654 104.460386,18.2604936 108.174578,18.2604936 C111.962527,18.2604936 114.250104,16.3665192 114.250104,13.4395321 C114.250104,12.0866731 113.782745,11.0535192 112.774129,10.1680192 C111.888771,9.3808141 110.486694,8.96267308 108.78945,8.37248077 C105.837642,7.36400641 104.238835,6.69977564 104.238835,4.68296795 C104.238835,2.7643141 105.837642,1.41145513 108.469604,1.41145513 C110.880296,1.41145513 112.233155,2.41978846 112.355988,4.19092949" id="Fill-1"></path>
                        <polygon id="Fill-4" points="44.8781808 14.4044859 33.1916679 14.4044859 40.0349372 9.19288333 38.6583859 9.19288333 44.8694372 3.98128077 44.8781808 3.98128077 44.8781808 3.97380641 44.8781808 0.156947436 43.4773731 0.156947436 27.2333346 0.156947436 27.2333346 3.98128077 38.9198474 3.98128077 32.0767192 9.19288333 33.4531295 9.19288333 27.2422192 14.4044859 27.2333346 14.4044859 27.2333346 14.4121013 27.2333346 18.2289603 28.6341423 18.2289603 44.8781808 18.2289603"></polygon>
                        <polygon id="Fill-6" points="19.9456795 18.2605641 25.1162436 18.2605641 25.1162436 0.156961538 19.9456795 0.156961538"></polygon>
                        <polygon id="Fill-8" points="96.1713641 18.2605077 100.721979 0.141110256 99.1722487 0.141110256 95.1383513 16.4235077 89.7761333 0.141110256 88.0296718 0.141110256 82.8396462 16.4484692 78.6826333 0.141110256 77.1330436 0.141110256 81.7574154 18.2605077 83.7743641 18.2605077 88.9151718 2.20473846 94.1789538 18.2605077"></polygon>
                        <polygon id="Fill-9" points="65.4093141 18.2605077 75.4604936 18.2605077 75.4604936 16.7573154 66.1609808 16.7573154 66.1609808 9.96030256 74.7663654 9.96030256 74.7663654 8.45725128 66.1609808 8.45725128 66.1609808 1.66023846 75.4604936 1.66023846 75.4604936 0.156905128 66.1609808 0.156905128 66.1609808 0.141110256 64.6577885 0.141110256 64.6577885 18.2447128 65.4093141 18.2447128"></polygon>
                        <polygon id="Fill-10" points="58.5841667 18.2605077 60.087359 18.2605077 60.087359 0.156905128 58.5841667 0.156905128 58.5841667 15.8664564 48.7677949 0.156905128 48.5068974 0.156905128 47.0037051 0.156905128 46.9952436 0.156905128 47.0037051 0.170302564 47.0037051 18.2605077 48.5068974 18.2605077 48.5068974 2.57591795 58.3077564 18.2605077"></polygon>
                        <path d="M11.9349859,12.8340526 C11.9349859,13.8115013 11.044691,14.6037833 9.94638333,14.6037833 L9.94638333,14.6039244 L5.17055,14.6039244 L5.17055,11.0643218 L9.94596026,11.0643218 C9.94610128,11.0643218 9.94624231,11.0641808 9.94638333,11.0641808 C11.044691,11.0641808 11.9349859,11.8564628 11.9349859,12.8340526 Z M11.9349859,5.55191154 C11.9349859,6.52921923 11.044691,7.32178333 9.94638333,7.32178333 L5.17055,7.32178333 L5.17055,3.78218077 L9.94596026,3.78218077 C9.94610128,3.78218077 9.94624231,3.78218077 9.94638333,3.78218077 C11.044691,3.78218077 11.9349859,4.57460385 11.9349859,5.55191154 Z M12.5873705,18.2289885 C15.4820628,18.2289885 17.8287295,16.2061167 17.8287295,13.71095 C17.8287295,11.2156423 15.4820628,9.19291154 12.5873705,9.19291154 C15.4820628,9.19291154 17.8287295,7.17018077 17.8287295,4.6750141 C17.8287295,2.17970641 15.4820628,0.156975641 12.5873705,0.156975641 L-1.41025641e-05,0.156975641 L-1.41025641e-05,9.19291154 L-1.41025641e-05,18.2289885 L12.5873705,18.2289885 Z" id="Fill-11"></path>
                    </g>
                </g>
            </g>
        </g>
    </g>
</svg>