<?xml version="1.0" encoding="UTF-8"?>
<svg width="24px" height="24px" viewBox="0 0 24 24" version="1.1" xmlns="http://www.w3.org/2000/svg" xmlns:xlink="http://www.w3.org/1999/xlink">
    <!-- Generator: Sketch 50.2 (55047) - http://www.bohemiancoding.com/sketch -->
    <desc>Created with Sketch.</desc>
    <defs></defs>
    <g id="Page-4" stroke="none" stroke-width="1" fill="none" fill-rule="evenodd">
        <g id="Menu/Mobile-app">
            <g id="Group">
                <rect id="Rectangle-5" x="0" y="0" width="24" height="24"></rect>
                <path d="M15.9291132,3 L8.06886439,3 C7.47932046,3 7,3.46108855 7,4.03135662 L7,19.9696182 C7,20.5389115 7.47932046,21 8.06886439,21 L15.9291132,21 C16.5186571,21 17,20.5389115 17,19.9696182 L17,4.03135662 C17,3.46108855 16.5186571,3 15.9291132,3 Z" id="Stroke-2" stroke="#2E2E2E" stroke-linecap="round" stroke-linejoin="round"></path>
                <path d="M7,17 L17,17" id="Stroke-4" stroke="#2E2E2E" stroke-linecap="round" stroke-linejoin="round"></path>
                <path d="M7,6 L17,6" id="Stroke-6" stroke="#2E2E2E" stroke-linecap="round" stroke-linejoin="round"></path>
                <path d="M10.8893,4.5142 L13.1113,4.5142" id="Stroke-8" stroke="#2E2E2E" stroke-linecap="round" stroke-linejoin="round"></path>
                <path d="M12.0021,19.8892 C11.5341,19.8892 11.1561,19.5112 11.1561,19.0442 C11.1561,18.5782 11.5341,18.2012 12.0021,18.2012 C12.4681,18.2012 12.8451,18.5782 12.8451,19.0442 C12.8451,19.5112 12.4681,19.8892 12.0021,19.8892 Z" id="Stroke-10" stroke="#2E2E2E" stroke-linecap="round" stroke-linejoin="round"></path>
            </g>
        </g>
    </g>
</svg>