<?xml version="1.0" encoding="UTF-8"?>
<svg width="24px" height="24px" viewBox="0 0 24 24" version="1.1" xmlns="http://www.w3.org/2000/svg" xmlns:xlink="http://www.w3.org/1999/xlink">
    <!-- Generator: Sketch 50.2 (55047) - http://www.bohemiancoding.com/sketch -->
    <desc>Created with Sketch.</desc>
    <defs></defs>
    <g id="Page-4" stroke="none" stroke-width="1" fill="none" fill-rule="evenodd">
        <g id="Menu/Support" stroke="#2E2E2E">
            <path d="M12.0624,19.5654 L13.3564,19.5654 C13.7737333,19.5654 14.1124,19.9040667 14.1124,20.3214 L14.1124,20.7327333 C14.1124,21.1500667 13.7737333,21.4887333 13.3564,21.4887333 L12.0624,21.4887333 C11.6450667,21.4887333 11.3064,21.1500667 11.3064,20.7327333 L11.3064,20.3214 C11.3064,19.9040667 11.6450667,19.5654 12.0624,19.5654 Z" id="Stroke-4"></path>
            <path d="M5.22713333,16.5953333 L3.29246667,16.1626667 C2.42913333,15.97 1.81513333,15.2033333 1.81513333,14.3186667 L1.81513333,12.1153333 C1.81513333,11.2306667 2.42913333,10.4646667 3.29246667,10.2713333 L5.22713333,9.83866667 L5.22713333,16.5953333 Z" id="Stroke-6" stroke-linecap="round" stroke-linejoin="round"></path>
            <path d="M5.2222,16.5953333 L5.2222,9.57533333 C5.2222,6.23533333 7.92953333,3.52733333 11.2695333,3.52733333 L12.7302,3.52733333 C16.0702,3.52733333 18.7775333,6.23533333 18.7775333,9.57533333 L18.7775333,16.6926667 C18.7775333,18.78 16.8202,20.7346667 14.7328667,20.7346667" id="Stroke-8" stroke-linecap="round"></path>
            <path d="M18.7728667,16.5953333 L20.7075333,16.1626667 C21.5708667,15.97 22.1848667,15.2033333 22.1848667,14.3186667 L22.1848667,12.1153333 C22.1848667,11.2306667 21.5708667,10.4646667 20.7075333,10.2713333 L18.7728667,9.83866667 L18.7728667,16.5953333 Z" id="Stroke-10" stroke-linecap="round" stroke-linejoin="round"></path>
        </g>
    </g>
</svg>