<?xml version="1.0" encoding="UTF-8"?>
<svg width="24px" height="24px" viewBox="0 0 24 24" version="1.1" xmlns="http://www.w3.org/2000/svg" xmlns:xlink="http://www.w3.org/1999/xlink">
    <!-- Generator: Sketch 50.2 (55047) - http://www.bohemiancoding.com/sketch -->
    <desc>Created with Sketch.</desc>
    <defs></defs>
    <g id="Page-4" stroke="none" stroke-width="1" fill="none" fill-rule="evenodd">
        <g id="Menu/Verification">
            <g id="Group">
                <rect id="Rectangle-5" x="0" y="0" width="24" height="24"></rect>
                <g id="Group-22" transform="translate(5.000000, 2.000900)" stroke="#2E2E2E" stroke-linecap="round" stroke-linejoin="round">
                    <path d="M16.9267,16.9557 C16.9267,19.0557 15.2247,20.7567 13.1257,20.7567 C11.0277,20.7567 9.3257,19.0557 9.3257,16.9557 C9.3257,14.8567 11.0277,13.1557 13.1257,13.1557 C15.2247,13.1557 16.9267,14.8567 16.9267,16.9557 Z" id="Stroke-2"></path>
                    <polyline id="Stroke-4" points="14.5725 15.984 12.6505 17.928 11.6795 17.109"></polyline>
                    <path d="M3.4026,14.2106 L8.3006,14.2106" id="Stroke-6"></path>
                    <path d="M3.4026,16.3678 L7.6756,16.3678" id="Stroke-8"></path>
                    <path d="M10.7034,7.5846 C10.7034,9.6296 9.0454,11.2876 7.0004,11.2876 C4.9554,11.2876 3.2974,9.6296 3.2974,7.5846 C3.2974,5.5396 4.9554,3.8816 7.0004,3.8816 C9.0454,3.8816 10.7034,5.5396 10.7034,7.5846 Z" id="Stroke-10"></path>
                    <path d="M8.3096,7.3932 C8.3096,8.1172 7.7236,8.7032 7.0006,8.7032 C6.2776,8.7032 5.6916,8.1172 5.6916,7.3932 C5.6916,6.6702 6.2776,6.0842 7.0006,6.0842 C7.7236,6.0842 8.3096,6.6702 8.3096,7.3932 Z" id="Stroke-12"></path>
                    <polyline id="Stroke-14" points="4.5974 10.3629 5.6194 9.2609 6.2974 8.5309"></polyline>
                    <polyline id="Stroke-16" points="7.6994 8.526 8.3814 9.261 9.4074 10.367"></polyline>
                    <path d="M13.9382,3.7125 L11.0192,3.7125 C10.8562,3.7125 10.7252,3.5805 10.7252,3.4185 L10.7252,0.4995 L13.9382,3.7125 Z" id="Stroke-18"></path>
                    <path d="M10.2173,19.4996 L1.0333,19.4996 C0.4973,19.4996 0.0623,19.0646 0.0623,18.5286 L0.0623,1.4706 C0.0623,0.9346 0.4973,0.4996 1.0333,0.4996 L10.7253,0.4996 L13.9383,3.7126 L13.9383,13.0726" id="Stroke-20"></path>
                </g>
            </g>
        </g>
    </g>
</svg>