<?xml version="1.0" encoding="UTF-8"?>
<svg width="24px" height="24px" viewBox="0 0 24 24" version="1.1" xmlns="http://www.w3.org/2000/svg" xmlns:xlink="http://www.w3.org/1999/xlink">
    <!-- Generator: Sketch 50.2 (55047) - http://www.bohemiancoding.com/sketch -->
    <desc>Created with Sketch.</desc>
    <defs></defs>
    <g id="Page-4" stroke="none" stroke-width="1" fill="none" fill-rule="evenodd">
        <g id="Menu/Wallets">
            <g id="Group-2">
                <rect id="Rectangle-5" x="0" y="0" width="24" height="24"></rect>
                <g id="Group" transform="translate(2.000000, 1.000000)" stroke="#2E2E2E">
                    <path d="M19.3383,14.8824 L12.7193,14.8824 C12.0933,14.8824 11.5853,14.3744 11.5853,13.7484 L11.5853,11.2554 C11.5853,10.6294 12.0933,10.1214 12.7193,10.1214 L19.3383,10.1214 C19.9643,10.1214 20.4723,10.6294 20.4723,11.2554 L20.4723,13.7484 C20.4723,14.3744 19.9643,14.8824 19.3383,14.8824 Z" id="Stroke-2"></path>
                    <path d="M15.1618,12.4771 C15.1618,12.9691 14.7628,13.3681 14.2708,13.3681 C13.7778,13.3681 13.3798,12.9691 13.3798,12.4771 C13.3798,11.9851 13.7778,11.5851 14.2708,11.5851 C14.7628,11.5851 15.1618,11.9851 15.1618,12.4771 Z" id="Stroke-4"></path>
                    <path d="M4.6356,5.1568 L15.4266,2.3398 C15.9986,2.1898 16.5826,2.5318 16.7326,3.1038 L17.2506,5.0898" id="Stroke-6"></path>
                    <path d="M19.2926,14.8824 L19.2926,18.7804 C19.2926,19.3724 18.8136,19.8514 18.2226,19.8514 L1.5306,19.8514 C0.9396,19.8514 0.4606,19.3724 0.4606,18.7804 L0.4606,6.2224 C0.4606,5.6314 0.9396,5.1534 1.5306,5.1534 L18.2226,5.1534 C18.8136,5.1534 19.2926,5.6314 19.2926,6.2224 L19.2926,10.1214" id="Stroke-8"></path>
                    <path d="M2.5167,5.1509 L11.2067,0.8289 C11.7357,0.5659 12.3777,0.7819 12.6407,1.3099 L13.3877,2.8119" id="Stroke-10"></path>
                </g>
            </g>
        </g>
    </g>
</svg>