<?xml version="1.0" encoding="UTF-8"?>
<svg width="110px" height="27px" viewBox="0 0 110 27" version="1.1" xmlns="http://www.w3.org/2000/svg" xmlns:xlink="http://www.w3.org/1999/xlink">
    <!-- Generator: Sketch 50.2 (55047) - http://www.bohemiancoding.com/sketch -->
    <title>JDAX Logo Copy</title>
    <desc>Created with Sketch.</desc>
    <defs></defs>
    <g id="Symbols" stroke="none" stroke-width="1" fill="none" fill-rule="evenodd">
        <g id="Nav-bar/1_Default" transform="translate(-70.000000, -9.000000)">
            <g id="JDAX-Logo/Nav_dark" transform="translate(70.000000, 0.000000)">
                <path d="M35.3998934,28.5063443 L36.3375984,27.4901967 C36.7027623,27.1773279 36.9371885,27.281918 37.1716148,27.5424918 C37.5620246,27.9851967 38.2914508,28.6623279 39.3075984,28.6623279 C40.5843197,28.6623279 41.9394836,27.9329016 41.9394836,25.6409344 L41.9394836,13.0576557 C41.9394836,12.797082 42.1468607,12.5626557 42.4344836,12.5626557 L44.1539098,12.5626557 C44.4397295,12.5626557 44.6489098,12.797082 44.6489098,13.0576557 L44.6489098,25.6147869 C44.6489098,29.2357705 42.356041,31.0597869 39.3075984,31.0597869 C37.040877,31.0597869 35.7912049,29.704623 35.3475984,29.1582295 C35.2177623,28.9490492 35.2439098,28.6884754 35.3998934,28.5063443" id="Fill-1" fill="#FFFFFF"></path>
                <path d="M59.022123,28.3240328 C62.8513852,28.3240328 65.5608115,25.5100164 65.5608115,21.6546066 C65.5608115,17.8253443 62.8513852,15.0374754 59.022123,15.0374754 L55.5057295,15.0374754 L55.5057295,28.3240328 L59.022123,28.3240328 Z M52.8476967,13.0574754 C52.8476967,12.7969016 53.0559754,12.5624754 53.3165492,12.5624754 L59.3079426,12.5624754 C64.3372869,12.5624754 68.4523689,16.6532131 68.4523689,21.6546066 C68.4523689,26.7082951 64.3372869,30.7990328 59.3079426,30.7990328 L53.3165492,30.7990328 C53.0559754,30.7990328 52.8476967,30.5646066 52.8476967,30.3040328 L52.8476967,13.0574754 Z" id="Fill-3" fill="#FFFFFF"></path>
                <path d="M84.8852869,24.5986393 L81.679959,17.4603607 L81.550123,17.4603607 L78.3718443,24.5986393 L84.8852869,24.5986393 Z M73.0837295,30.1211803 L81.0812705,12.5888033 C81.1597131,12.431918 81.3941393,12.302082 81.5239754,12.302082 L81.7854508,12.302082 C81.9152869,12.302082 82.1497131,12.431918 82.2281557,12.5888033 L90.1734016,30.1211803 C90.3293852,30.4601967 90.1220082,30.7992131 89.7306967,30.7992131 L88.0897131,30.7992131 C87.7768443,30.7992131 87.5947131,30.6423279 87.490123,30.4079016 L85.8752869,26.8392131 L77.3556967,26.8392131 L75.7670082,30.4079016 C75.6885656,30.5909344 75.4802869,30.7992131 75.1683197,30.7992131 L73.5264344,30.7992131 C73.1360246,30.7992131 72.9268443,30.4601967 73.0837295,30.1211803 Z" id="Fill-5" fill="#FFFFFF"></path>
                <path d="M100.964221,21.446418 L95.805041,13.2919918 C95.5976639,12.953877 95.805041,12.5625656 96.2486475,12.5625656 L98.4630738,12.5625656 C98.6452049,12.5625656 98.8282377,12.6671557 98.9057787,12.7969918 L102.526762,19.0237131 L102.605205,19.0237131 L106.330779,12.7969918 C106.383074,12.6933033 106.539057,12.5625656 106.747336,12.5625656 L108.961762,12.5625656 C109.404467,12.5625656 109.613648,12.953877 109.404467,13.2919918 L104.24709,21.446418 L109.586598,30.0687951 C109.795779,30.433959 109.586598,30.799123 109.143893,30.799123 L107.138648,30.799123 C106.929467,30.799123 106.747336,30.6692869 106.695041,30.5646967 L102.631352,23.8952705 L102.526762,23.8952705 L98.5144672,30.5646967 C98.4369262,30.6692869 98.280041,30.799123 98.0726639,30.799123 L96.0656148,30.799123 C95.5976639,30.799123 95.3884836,30.4078115 95.5976639,30.0687951 L100.964221,21.446418 Z" id="Fill-7" fill="#FFFFFF"></path>
                <g id="Group" stroke-width="1" transform="translate(0.000000, 9.000000)">
                    <polygon id="Fill-1" fill="#0D979E" points="3.3603 4.5767 3.3603 14.6577 14.1413 19.6987 14.1413 9.6187"></polygon>
                    <polygon id="Fill-2" fill="#58B13C" points="26.1074 21.6582 26.1074 11.5772 15.3264 6.5362 15.3264 16.6162"></polygon>
                    <path d="M14.1415,9.6182 L0.0775,16.1942 C0.0305,16.2172 -0.0005,16.2642 -0.0005,16.3162 L-0.0005,26.1002 C-0.0005,26.1992 0.1025,26.2642 0.1915,26.2222 L14.1415,19.6992 L14.1415,9.6182 Z" id="Fill-3" fill="#05C0C9"></path>
                    <path d="M15.3261,16.6167 L29.3901,10.0407 C29.4371,10.0177 29.4681,9.9707 29.4681,9.9187 L29.4681,0.1347 C29.4681,0.0357 29.3651,-0.0293 29.2761,0.0127 L15.3261,6.5357 L15.3261,16.6167 Z" id="Fill-6" fill="#82D739"></path>
                </g>
            </g>
        </g>
    </g>
</svg>