<?xml version="1.0" encoding="UTF-8"?>
<svg width="24px" height="24px" viewBox="0 0 24 24" version="1.1" xmlns="http://www.w3.org/2000/svg" xmlns:xlink="http://www.w3.org/1999/xlink">
    <!-- Generator: Sketch 50.2 (55047) - http://www.bohemiancoding.com/sketch -->
    <desc>Created with Sketch.</desc>
    <defs></defs>
    <g id="Page-4" stroke="none" stroke-width="1" fill="none" fill-rule="evenodd" stroke-linecap="round" stroke-linejoin="round">
        <g id="Menu/Company" stroke="#2E2E2E">
            <g id="Group-18" transform="translate(1.000000, 4.000900)">
                <path d="M11.0005,5.4791 C9.7885,5.4791 8.8055,4.4971 8.8055,3.2851 L8.8055,2.5621 C8.8055,1.3501 9.7885,0.3681 11.0005,0.3681 C12.2125,0.3681 13.1955,1.3501 13.1955,2.5621 L13.1955,3.2851 C13.1955,4.4971 12.2125,5.4791 11.0005,5.4791 Z" id="Stroke-2"></path>
                <path d="M10.3843,7.0328 L11.6163,7.0328" id="Stroke-4"></path>
                <path d="M11.0005,7.0328 L11.0005,12.6628" id="Stroke-6"></path>
                <path d="M16.6496,15.6315 L5.3516,15.6315 L6.6666,8.2895 C6.8276,7.5565 7.4766,7.0325 8.2276,7.0325 L8.8056,7.0325 L11.0006,13.2255 L13.1926,7.0325 L13.7736,7.0325 C14.5246,7.0325 15.1736,7.5565 15.3336,8.2895 L16.6496,15.6315 Z" id="Stroke-8"></path>
                <path d="M4.8183,6.5758 C3.9623,6.5758 3.2683,5.8828 3.2683,5.0268 L3.2683,4.2248 C3.2683,3.3698 3.9623,2.6768 4.8183,2.6768 C5.6743,2.6768 6.3673,3.3698 6.3673,4.2248 L6.3673,5.0268 C6.3673,5.8828 5.6743,6.5758 4.8183,6.5758 Z" id="Stroke-10"></path>
                <path d="M5.5776,14.2428 L4.7556,14.2428 C2.3296,14.2428 0.9126,13.2638 0.9126,13.2638 L0.9126,11.1688 C0.9126,9.4048 2.3426,7.9738 4.1066,7.9738 L4.8346,7.9738 L6.7126,7.9738" id="Stroke-12"></path>
                <path d="M17.1826,6.5758 C18.0386,6.5758 18.7326,5.8828 18.7326,5.0268 L18.7326,4.2248 C18.7326,3.3698 18.0386,2.6768 17.1826,2.6768 C16.3266,2.6768 15.6336,3.3698 15.6336,4.2248 L15.6336,5.0268 C15.6336,5.8828 16.3266,6.5758 17.1826,6.5758 Z" id="Stroke-14"></path>
                <path d="M16.4233,14.2428 L17.2453,14.2428 C19.6713,14.2428 21.0883,13.2638 21.0883,13.2638 L21.0883,11.1688 C21.0883,9.4048 19.6583,7.9738 17.8943,7.9738 L17.1663,7.9738 L15.2883,7.9738" id="Stroke-16"></path>
            </g>
        </g>
    </g>
</svg>