<?xml version="1.0" encoding="UTF-8"?>
<svg width="24px" height="24px" viewBox="0 0 24 24" version="1.1" xmlns="http://www.w3.org/2000/svg" xmlns:xlink="http://www.w3.org/1999/xlink">
    <!-- Generator: Sketch 50.2 (55047) - http://www.bohemiancoding.com/sketch -->
    <desc>Created with Sketch.</desc>
    <defs></defs>
    <g id="Page-4" stroke="none" stroke-width="1" fill="none" fill-rule="evenodd">
        <g id="Menu/Info-kit">
            <g id="Group">
                <rect id="Rectangle-5" x="0" y="0" width="24" height="24"></rect>
                <polyline id="Stroke-2" stroke="#2E2E2E" stroke-linecap="round" stroke-linejoin="round" points="6.1466 16.77 4.9596 17.374 2.0006 17.374 2.0006 6.041 3.9586 6.041"></polyline>
                <path d="M5.3288,15.0513 C4.5528,15.2853 4.0008,15.5203 4.0008,15.5203 L4.0008,4.3113 C4.0008,4.3113 4.7298,3.3733 8.0008,3.3733 C11.2718,3.3733 12.0008,4.3113 12.0008,4.3113 L12.0008,7.4133" id="Stroke-3" stroke="#2E2E2E" stroke-linecap="round" stroke-linejoin="round"></path>
                <polyline id="Stroke-5" stroke="#2E2E2E" stroke-linecap="round" stroke-linejoin="round" points="17.8544 16.77 19.0414 17.374 22.0004 17.374 22.0004 6.041 20.0424 6.041"></polyline>
                <path d="M18.672,15.0513 C19.448,15.2853 20,15.5203 20,15.5203 L20,4.3113 C20,4.3113 19.271,3.3733 16,3.3733 C12.729,3.3733 12,4.3113 12,4.3113 L12,7.4133" id="Stroke-7" stroke="#2E2E2E" stroke-linecap="round" stroke-linejoin="round"></path>
                <path d="M15.3576,10.5376 C17.2116,12.3916 17.2116,15.3976 15.3576,17.2516 C13.5036,19.1056 10.4976,19.1056 8.6436,17.2516 C6.7896,15.3976 6.7896,12.3916 8.6436,10.5376 C10.4976,8.6836 13.5036,8.6836 15.3576,10.5376 Z" id="Stroke-9" stroke="#2E2E2E" stroke-linecap="round" stroke-linejoin="round"></path>
                <path d="M15.3576,17.2515 L18.7326,20.6265" id="Stroke-11" stroke="#2E2E2E" stroke-linecap="round" stroke-linejoin="round"></path>
            </g>
        </g>
    </g>
</svg>