<?xml version="1.0" encoding="UTF-8"?>
<svg width="24px" height="24px" viewBox="0 0 24 24" version="1.1" xmlns="http://www.w3.org/2000/svg" xmlns:xlink="http://www.w3.org/1999/xlink">
    <!-- Generator: Sketch 50.2 (55047) - http://www.bohemiancoding.com/sketch -->
    <desc>Created with Sketch.</desc>
    <defs></defs>
    <g id="Page-4" stroke="none" stroke-width="1" fill="none" fill-rule="evenodd" stroke-linecap="round" stroke-linejoin="round">
        <g id="Menu/Vote" stroke="#2E2E2E">
            <g id="Group" transform="translate(3.000000, 2.000000)">
                <polygon id="Stroke-2" points="2.5893 8.9536 0.2433 6.6076 6.7213 0.1286 9.0683 2.4746"></polygon>
                <path d="M6.7141,2.4829 L5.6281,3.5689" id="Stroke-3"></path>
                <path d="M6.4602,8.4517 L6.4602,9.5497 C6.4602,10.2237 6.7282,10.8707 7.2052,11.3477 L8.8302,12.9717 L8.8302,14.2877 C8.8302,15.2227 9.5892,15.9817 10.5242,15.9817 L10.6292,15.9817 C11.0972,15.9817 11.4762,15.6017 11.4762,15.1347 L11.4762,10.4407" id="Stroke-4"></path>
                <polyline id="Stroke-6" points="8.3157 3.7339 13.7967 9.2149 13.7987 14.7579"></polyline>
                <path d="M7.4607,14.7144 L5.6467,12.9014 C5.1167,12.3714 4.8187,11.6524 4.8187,10.9034 L4.8187,9.6164 L3.6267,8.4234" id="Stroke-8"></path>
                <path d="M11.4643,13.4595 C13.2003,13.7805 14.5153,15.3035 14.5153,17.1325 C14.5153,18.2155 14.0553,19.1895 13.3193,19.8715" id="Stroke-10"></path>
                <path d="M8.2397,19.8716 C7.5047,19.1896 7.0437,18.2156 7.0437,17.1326 C7.0437,15.8436 7.6977,14.7066 8.6907,14.0346" id="Stroke-12"></path>
                <polyline id="Stroke-14" points="5.6638 18.0562 4.1218 18.0562 4.1218 19.8712 17.4368 19.8712 17.4368 18.0562 15.8958 18.0562"></polyline>
            </g>
        </g>
    </g>
</svg>