<?xml version="1.0" encoding="UTF-8"?>
<svg width="24px" height="24px" viewBox="0 0 24 24" version="1.1" xmlns="http://www.w3.org/2000/svg" xmlns:xlink="http://www.w3.org/1999/xlink">
    <!-- Generator: Sketch 50.2 (55047) - http://www.bohemiancoding.com/sketch -->
    <desc>Created with Sketch.</desc>
    <defs></defs>
    <g id="Page-4" stroke="none" stroke-width="1" fill="none" fill-rule="evenodd" stroke-linecap="round" stroke-linejoin="round">
        <g id="Menu/Careers" stroke="#2E2E2E">
            <path d="M13.5052381,13.6451428 L20.8871429,13.6451428 L20.8871429,19.2718095 C20.8871429,19.5175238 20.697619,19.715619 20.4652381,19.715619 L3.58333333,19.715619 C3.35,19.715619 3.16142857,19.5175238 3.16142857,19.2718095 L3.16142857,13.6451428 L10.5433333,13.6451428" id="Stroke-15"></path>
            <path d="M10.5434286,14.8719047 L10.5434286,12.1919047 C10.5434286,11.917619 10.7424762,11.6957142 10.9881905,11.6957142 L13.0605714,11.6957142 C13.3062857,11.6957142 13.504381,11.917619 13.504381,12.1919047 L13.504381,14.8719047 C13.504381,15.1461904 13.3062857,15.3680952 13.0605714,15.3680952 L10.9881905,15.3680952 C10.7424762,15.3680952 10.5434286,15.1461904 10.5434286,14.8719047 Z" id="Stroke-16"></path>
            <path d="M8.30666667,6.98219043 L8.30666667,5.36028567 C8.30666667,4.60790471 8.91619048,3.9983809 9.66857143,3.9983809 L14.3790476,3.9983809 C15.1314286,3.9983809 15.7409524,4.60790471 15.7409524,5.36028567 L15.7409524,6.98219043" id="Stroke-17"></path>
            <path d="M10.5441905,13.6451428 L3.12038095,13.6451428 C2.88609524,13.6451428 2.69657143,13.4470476 2.69657143,13.2013333 L2.69657143,7.42704757 C2.69657143,7.18133329 2.88609524,6.98228567 3.12038095,6.98228567 L20.928,6.98228567 C21.1622857,6.98228567 21.3518095,7.18133329 21.3518095,7.42704757 L21.3518095,13.2013333 C21.3518095,13.4470476 21.1622857,13.6451428 20.928,13.6451428 L13.5051429,13.6451428" id="Stroke-18"></path>
        </g>
    </g>
</svg>