<?xml version="1.0" encoding="UTF-8"?>
<svg width="24px" height="24px" viewBox="0 0 24 24" version="1.1" xmlns="http://www.w3.org/2000/svg" xmlns:xlink="http://www.w3.org/1999/xlink">
    <!-- Generator: Sketch 50.2 (55047) - http://www.bohemiancoding.com/sketch -->
    <desc>Created with Sketch.</desc>
    <defs></defs>
    <g id="Page-4" stroke="none" stroke-width="1" fill="none" fill-rule="evenodd">
        <g id="Menu/Privacy">
            <g id="Group-2">
                <rect id="Rectangle-5" x="0" y="0" width="24" height="24"></rect>
                <g id="Group" transform="translate(5.000000, 2.000000)" stroke="#2E2E2E" stroke-linecap="round" stroke-linejoin="round">
                    <polygon id="Stroke-2" points="0.333 19.2749 13.668 19.2749 13.668 7.9069 0.333 7.9069"></polygon>
                    <g id="Group-7" transform="translate(2.000000, 0.000900)">
                        <path d="M0.8219,7.6315 L0.8219,4.7065 C0.8219,2.3965 2.6949,0.5245 5.0039,0.5245 C7.3139,0.5245 9.1869,2.3965 9.1869,4.7065 L9.1869,7.6315" id="Stroke-3"></path>
                        <path d="M5.6874,13.566 C6.0424,13.337 6.2914,12.956 6.2914,12.501 C6.2914,11.788 5.7134,11.21 5.0004,11.21 C4.2874,11.21 3.7094,11.788 3.7094,12.501 C3.7094,12.956 3.9584,13.337 4.3134,13.566 L3.7534,15.794 C3.7314,15.883 3.7984,15.97 3.8914,15.97 L6.1104,15.97 C6.2024,15.97 6.2704,15.883 6.2474,15.794 L5.6874,13.566 Z" id="Stroke-5"></path>
                    </g>
                </g>
            </g>
        </g>
    </g>
</svg>