<!--Scalable Vector Graphic-->
<svg width="110px" height="27px" viewBox="0 0 110 27" version="1.1" xmlns="http://www.w3.org/2000/svg" xmlns:xlink="http://www.w3.org/1999/xlink">
                    <g id="Logo" stroke="none" stroke-width="1" fill="none" fill-rule="evenodd">
                        <g id="LogoType" fill="#242930">
                            <path d="M35.3998934,19.5063443 L36.3375984,18.4901967 C36.7027623,18.1773279 36.9371885,18.281918 37.1716148,18.5424918 C37.5620246,18.9851967 38.2914508,19.6623279 39.3075984,19.6623279 C40.5843197,19.6623279 41.9394836,18.9329016 41.9394836,16.6409344 L41.9394836,4.05765574 C41.9394836,3.79708197 42.1468607,3.56265574 42.4344836,3.56265574 L44.1539098,3.56265574 C44.4397295,3.56265574 44.6489098,3.79708197 44.6489098,4.05765574 L44.6489098,16.6147869 C44.6489098,20.2357705 42.356041,22.0597869 39.3075984,22.0597869 C37.040877,22.0597869 35.7912049,20.704623 35.3475984,20.1582295 C35.2177623,19.9490492 35.2439098,19.6884754 35.3998934,19.5063443"></path>
                            <path d="M59.022123,19.3240328 C62.8513852,19.3240328 65.5608115,16.5100164 65.5608115,12.6546066 C65.5608115,8.82534426 62.8513852,6.03747541 59.022123,6.03747541 L55.5057295,6.03747541 L55.5057295,19.3240328 L59.022123,19.3240328 Z M52.8476967,4.05747541 C52.8476967,3.79690164 53.0559754,3.56247541 53.3165492,3.56247541 L59.3079426,3.56247541 C64.3372869,3.56247541 68.4523689,7.65321311 68.4523689,12.6546066 C68.4523689,17.7082951 64.3372869,21.7990328 59.3079426,21.7990328 L53.3165492,21.7990328 C53.0559754,21.7990328 52.8476967,21.5646066 52.8476967,21.3040328 L52.8476967,4.05747541 Z"></path>
                            <path d="M84.8852869,15.5986393 L81.679959,8.46036066 L81.550123,8.46036066 L78.3718443,15.5986393 L84.8852869,15.5986393 Z M73.0837295,21.1211803 L81.0812705,3.58880328 C81.1597131,3.43191803 81.3941393,3.30208197 81.5239754,3.30208197 L81.7854508,3.30208197 C81.9152869,3.30208197 82.1497131,3.43191803 82.2281557,3.58880328 L90.1734016,21.1211803 C90.3293852,21.4601967 90.1220082,21.7992131 89.7306967,21.7992131 L88.0897131,21.7992131 C87.7768443,21.7992131 87.5947131,21.6423279 87.490123,21.4079016 L85.8752869,17.8392131 L77.3556967,17.8392131 L75.7670082,21.4079016 C75.6885656,21.5909344 75.4802869,21.7992131 75.1683197,21.7992131 L73.5264344,21.7992131 C73.1360246,21.7992131 72.9268443,21.4601967 73.0837295,21.1211803 Z"></path>
                            <path d="M100.964221,12.446418 L95.805041,4.2919918 C95.5976639,3.95387705 95.805041,3.56256557 96.2486475,3.56256557 L98.4630738,3.56256557 C98.6452049,3.56256557 98.8282377,3.66715574 98.9057787,3.7969918 L102.526762,10.0237131 L102.605205,10.0237131 L106.330779,3.7969918 C106.383074,3.69330328 106.539057,3.56256557 106.747336,3.56256557 L108.961762,3.56256557 C109.404467,3.56256557 109.613648,3.95387705 109.404467,4.2919918 L104.24709,12.446418 L109.586598,21.0687951 C109.795779,21.433959 109.586598,21.799123 109.143893,21.799123 L107.138648,21.799123 C106.929467,21.799123 106.747336,21.6692869 106.695041,21.5646967 L102.631352,14.8952705 L102.526762,14.8952705 L98.5144672,21.5646967 C98.4369262,21.6692869 98.280041,21.799123 98.0726639,21.799123 L96.0656148,21.799123 C95.5976639,21.799123 95.3884836,21.4078115 95.5976639,21.0687951 L100.964221,12.446418 Z"></path>
                        </g>
                        <g id="Logomark">
                            <polygon id="Fill-1" fill="#0D979E" points="3.3603 4.5767 3.3603 14.6577 14.1413 19.6987 14.1413 9.6187"></polygon>
                            <polygon id="Fill-2" fill="#58B13C" points="26.1074 21.6582 26.1074 11.5772 15.3264 6.5362 15.3264 16.6162"></polygon>
                            <path d="M14.1415,9.6182 L0.0775,16.1942 C0.0305,16.2172 -0.0005,16.2642 -0.0005,16.3162 L-0.0005,26.1002 C-0.0005,26.1992 0.1025,26.2642 0.1915,26.2222 L14.1415,19.6992 L14.1415,9.6182 Z" id="Fill-3" fill="#05C0C9"></path>
                            <path d="M15.3261,16.6167 L29.3901,10.0407 C29.4371,10.0177 29.4681,9.9707 29.4681,9.9187 L29.4681,0.1347 C29.4681,0.0357 29.3651,-0.0293 29.2761,0.0127 L15.3261,6.5357 L15.3261,16.6167 Z" id="Fill-6" fill="#82D739"></path>
                        </g>
                    </g>
                </svg>