<svg xmlns="http://www.w3.org/2000/svg" viewBox="0 0 201 201"><defs><style>.a,.b,.d,.e,.g,.i{fill:none;}.a{stroke:#ccc;}.a,.b,.c,.d,.e,.g,.h,.i{stroke-miterlimit:10;}.a,.c,.d,.e,.g,.h,.i{stroke-width:3px;}.b{stroke:#ececec;}.c{fill:rgba(5,192,201,0.5);}.c,.d,.e,.h,.i{stroke:#242930;}.c,.d,.g,.i{stroke-linecap:round;stroke-linejoin:round;}.f{fill:#242930;}.g{stroke:#05c0c9;}.h{fill:#fff;}.i{stroke-dasharray:3.893 5.84;}</style></defs><g transform="translate(0.5 0.5)"><g transform="translate(49 29)"><path class="a" d="M5.959,11.919a5.959,5.959,0,1,1,5.959-5.96A5.959,5.959,0,0,1,5.959,11.919Z" transform="translate(0 18)"/><path class="a" d="M8.555,4.278A4.278,4.278,0,1,1,4.277,0,4.277,4.277,0,0,1,8.555,4.278" transform="translate(94.466 50.883)"/><path class="a" d="M8.555,4.278A4.278,4.278,0,1,1,4.277,0,4.277,4.277,0,0,1,8.555,4.278" transform="translate(44.07 87.403)"/><path class="a" d="M6.723,3.361A3.362,3.362,0,1,1,3.362,0,3.361,3.361,0,0,1,6.723,3.361" transform="translate(37 0.677)"/></g><circle class="b" cx="100" cy="100" r="100"/><g transform="translate(54 133)"><path class="c" d="M0,29H14V0H0Z"/><path class="d" d="M18.974,14.035l8.588,5.72a5.786,5.786,0,0,0,7.979-1.543,5.65,5.65,0,0,0-1.559-7.893L18.5,0H0V22.836H7.46L30.5,33.744a2.664,2.664,0,0,0,2.558-.152L76.518,6.278A3.138,3.138,0,0,0,74.336.526l-44.842,6.8" transform="translate(14 3)"/></g><path class="e" d="M22.723,11.361A11.361,11.361,0,1,1,11.362,0,11.362,11.362,0,0,1,22.723,11.361" transform="translate(48.182 97.353)"/><path class="f" d="M3.187,8.26,3.76,5.531l2.9-1.986L7,1.923,4.1,3.917,4.922,0H2.7L1.5,5.7.283,6.543,0,8.109l1.165-.8-.6,2.86H7.694l.4-1.91Z" transform="translate(55.498 103.628)"/><g transform="translate(40 53)"><path class="g" d="M0,55,15.468,39.271,28.988,53.021,74.42,6.818,93.858,26.586,120,0"/><path class="g" d="M10,10V0H0" transform="translate(110)"/></g><path class="e" d="M35.558,17.778A17.779,17.779,0,1,1,17.779,0,17.779,17.779,0,0,1,35.558,17.778" transform="translate(115.268 93.897)"/><path class="h" d="M21,42A21,21,0,1,1,42,21,21,21,0,0,1,21,42Z" transform="translate(72.423 58.882)"/><path class="f" d="M6.75,24.281H4.514l0-3.722-.655-.006H3.83c-.3,0-.607-.006-.916-.007H0l.445-2.674c.009,0,.738.012,1.218.012a3.041,3.041,0,0,0,.41-.011.792.792,0,0,0,.841-.742v-5.87h.237a1.779,1.779,0,0,0-.237-.016V7.055a1.157,1.157,0,0,0-1.288-.981,2.135,2.135,0,0,0-.4-.014C.755,6.06.008,6.075,0,6.075V3.684H3.089V3.7H3.1c.462,0,.935-.009,1.419-.019L4.516,0H6.753V3.606c.57-.013,1.178-.024,1.788-.024V0h2.24V3.679c3.487.305,5.214,1.511,5.433,3.794a3.479,3.479,0,0,1-1.921,3.766,4.264,4.264,0,0,1,2.506,1.44,4.368,4.368,0,0,1,.706,3.19,4.352,4.352,0,0,1-2.075,3.594,10.152,10.152,0,0,1-4.651,1.1l0,3.713H8.538V20.617c-.63,0-1.216-.006-1.789-.018V24.28ZM8.274,12.939c-.346,0-.659.007-.925.014-.188,0-.355.008-.5.008H6.8v4.929c.125,0,.284,0,.5,0,.181,0,.4.005.622.005a11.489,11.489,0,0,0,3.325-.388c1.215-.391,1.831-1.094,1.831-2.087a2.146,2.146,0,0,0-1.657-2.08A9.828,9.828,0,0,0,8.274,12.939ZM8.05,6.215c-.292,0-.559.006-.786.013-.158,0-.3.008-.418.008H6.8v4.47c.093,0,.206,0,.367,0h.065c.159,0,.338.005.527.005a8.734,8.734,0,0,0,2.76-.354,1.946,1.946,0,0,0,1.515-1.892,1.923,1.923,0,0,0-1.372-1.886A7.5,7.5,0,0,0,8.05,6.215Z" transform="translate(85 67.743)"/><path class="e" d="M29.2,14.6A14.6,14.6,0,1,1,14.6,0,14.6,14.6,0,0,1,29.2,14.6" transform="translate(111.023 29.677)"/><path class="f" d="M12.331,9.2A3.66,3.66,0,0,0,10.6,8.787,1.225,1.225,0,0,1,9.359,7.542,1.262,1.262,0,0,1,10.6,6.3a3.645,3.645,0,0,0,1.729-.418A3.15,3.15,0,1,0,7.606,3.151,3.616,3.616,0,0,0,8.1,4.844a1.228,1.228,0,0,1-.448,1.713A1.266,1.266,0,0,1,5.945,6.09,3.623,3.623,0,0,0,4.726,4.814a3.15,3.15,0,1,0,0,5.456A3.621,3.621,0,0,0,5.945,8.995a1.226,1.226,0,0,1,1.707-.467A1.267,1.267,0,0,1,8.1,10.241a3.616,3.616,0,0,0-.494,1.693A3.15,3.15,0,1,0,12.331,9.2" transform="translate(117.579 36.738)"/><path class="i" d="M53.458,26.729A26.729,26.729,0,1,1,26.729,0,26.729,26.729,0,0,1,53.458,26.729Z" transform="translate(66.695 53.154)"/><g transform="translate(126 100)"><path class="f" d="M6.6,0,0,11.073,6.6,14.85l6.6-3.777Z" transform="translate(0.45 0.896)"/><path class="f" d="M6.495,9.1,0,0,6.495,3.774,12.987,0Z" transform="translate(0.556 13.379)"/></g></g></svg>