<svg xmlns="http://www.w3.org/2000/svg" viewBox="0 0 201 201"><defs><style>.a{fill:#05c0c9;opacity:0.5;}.b,.c,.e{fill:none;}.b{stroke:#ececec;}.b,.c,.d,.e{stroke-miterlimit:10;}.c,.d{stroke:#242930;}.c,.d,.e{stroke-linecap:round;stroke-linejoin:round;stroke-width:3px;}.d{fill:rgba(5,192,201,0.5);}.e{stroke:#ccc;}</style></defs><g transform="translate(0.5 0.5)"><path class="a" d="M51.558,0a3.726,3.726,0,0,1,0,5.321l-41,40.432L0,49.419Z" transform="translate(108.5 113.021)"/><circle class="b" cx="100" cy="100" r="100"/><path class="c" d="M25.5,12.75A12.75,12.75,0,1,1,12.75,0,12.75,12.75,0,0,1,25.5,12.75Z" transform="translate(104.383 81.554)"/><path class="c" d="M9.7,0,3.257,6.521,0,3.775" transform="translate(112.281 91.702)"/><path class="d" d="M10.561,6.747A70.316,70.316,0,0,0,3.717,0L0,10.413Z" transform="translate(108.716 151.735)"/><path class="d" d="M24.664,0,0,24.321a69.5,69.5,0,0,1,6.836,6.741L31.5,6.74Z" transform="translate(112.438 127.418)"/><path class="d" d="M16.34,1.1,0,17.213l6.838,6.74L23.175,7.843a3.726,3.726,0,0,0,0-5.321L21.736,1.1A3.852,3.852,0,0,0,16.34,1.1Z" transform="translate(137.098 110.208)"/><path class="c" d="M0,22.762,14.989,7.981a5.588,5.588,0,0,0,0-7.981" transform="translate(145.111 118.208)"/><path class="c" d="M18.293,0V11.986a5.669,5.669,0,0,1-5.669,5.669H0" transform="translate(122.216 137.815)"/><path class="c" d="M51.558,110.939H5.67A5.67,5.67,0,0,1,0,105.27V5.668A5.67,5.67,0,0,1,5.67,0H75.348a5.669,5.669,0,0,1,5.669,5.668V79.4" transform="translate(59.492 44.531)"/><path class="c" d="M24.771,38.859A19.754,19.754,0,1,1,39.5,19.752a19.956,19.956,0,0,1-.139,2.357" transform="translate(80.249 59.648)"/><path class="c" d="M19.273,19.509c-.576-.44-1.088-.854-1.464-1.163-.4-.333-.651-.547-.651-.547V16.407a8.041,8.041,0,0,0,.9-1.223c.708-1.139,1.31-2.447,1.58-2.763a7.967,7.967,0,0,0,.949-2.847c0-.505-.633-.948-.633-.948V5.277a6.018,6.018,0,0,0-1.081-3.026A6.255,6.255,0,0,0,13.929,0c-.128,0-.2,0-.2,0s-.072,0-.2,0A6.365,6.365,0,0,0,8.778,2.011,5.877,5.877,0,0,0,7.509,5.277V8.626s-.633.443-.633.948a7.95,7.95,0,0,0,.95,2.847c.379.443,1.413,2.848,2.477,3.986V17.8s-.131.113-.357.3c-.28.233-.7.583-1.21.981a25.736,25.736,0,0,1-4.011,2.7A45.436,45.436,0,0,0,0,24.195a19.736,19.736,0,0,0,18.719,4.932" transform="translate(86.27 69.386)"/><g transform="translate(78 114)"><path class="e" d="M0,0H42.016" transform="translate(0.992 0.056)"/><path class="e" d="M0,0H42.016" transform="translate(0.992 10.998)"/><path class="e" d="M0,0H28.39" transform="translate(0.992 21.94)"/></g></g></svg>