<svg xmlns="http://www.w3.org/2000/svg" viewBox="0 0 201 201"><defs><style>.a{opacity:0.5;}.b{fill:#05c0c9;}.c,.d,.e{fill:none;stroke-miterlimit:10;}.c{stroke:#ccc;}.c,.e{stroke-linecap:round;stroke-linejoin:round;stroke-width:3px;}.d{stroke:#ececec;}.e{stroke:#242930;}.f{fill:#242930;}</style></defs><g transform="translate(0.5 0.5)"><g class="a" transform="translate(56 84)"><path class="b" d="M9.067,18.416V6.2A6.2,6.2,0,0,0,2.869,0H1.553L0,12.217s9.067-1.552,9.067,6.2" transform="translate(79.843 0)"/><path class="b" d="M41.856,8.195A14.9,14.9,0,0,1,40.513,0H36.232S32.718,4.167,23.86,4.127,11.453,0,11.453,0H6.109a6.109,6.109,0,0,0,0,12.218h37.8s-.014.392-2.051-4.023" transform="translate(0 0)"/></g><g transform="translate(55 104)"><path class="c" d="M0,3.28A3.28,3.28,0,1,0,3.28,0,3.279,3.279,0,0,0,0,3.28Z" transform="translate(35.197 0.399)"/><path class="c" d="M29.7,11.654H19.312L7.658,0,0,.007" transform="translate(41.756 3.673)"/><path class="c" d="M0,3.279A3.28,3.28,0,1,0,3.28,0,3.279,3.279,0,0,0,0,3.279Z" transform="translate(45.813 38.009)"/><path class="c" d="M29.7,0H20.224L11.45,8.772H0" transform="translate(52.372 32.515)"/><path class="c" d="M6.559,3.279A3.28,3.28,0,1,1,3.279,0,3.278,3.278,0,0,1,6.559,3.279Z" transform="translate(22.833 11.092)"/><path class="c" d="M22.207,0H0" transform="translate(0.626 14.371)"/><path class="c" d="M0,3.279A3.28,3.28,0,1,0,3.28,0,3.278,3.278,0,0,0,0,3.279Z" transform="translate(20.303 31.315)"/><path class="c" d="M0,11.723H11L22.72,0H43.611" transform="translate(26.862 22.871)"/><path class="c" d="M13.665,0H0" transform="translate(67.374 1.617)"/><path class="c" d="M9.747,0H0" transform="translate(2.332 24.938)"/><path class="c" d="M9.747,0H0" transform="translate(52.481 31.087)"/></g><circle class="d" cx="100" cy="100" r="100"/><path class="e" d="M0,0V58.214a6.2,6.2,0,0,0,6.2,6.2H82.713a6.2,6.2,0,0,0,6.2-6.2v-11.8" transform="translate(55.626 90.09)"/><path class="e" d="M0,0H1.316a6.2,6.2,0,0,1,6.2,6.2V18.416" transform="translate(137.023 83.981)"/><path class="e" d="M0,0H4.282" transform="translate(91.857 83.981)"/><path class="e" d="M88.91,30.214v-11.8a6.2,6.2,0,0,0-6.2-6.2H6.109A6.109,6.109,0,0,1,6.109,0h5.344" transform="translate(55.626 83.981)"/><path class="e" d="M40.958,20.479A20.479,20.479,0,1,1,20.479,0,20.479,20.479,0,0,1,40.958,20.479Z" transform="translate(59.007 47.15)"/><path class="e" d="M3.366,31.732a20.48,20.48,0,1,1,34.233-.01" transform="translate(96.167 64.466)"/><path class="e" d="M0,0V6.11" transform="translate(109.382 51.648)"/><path class="e" d="M0,0V6.11" transform="translate(115.909 51.648)"/><path class="e" d="M0,1.5V0" transform="translate(109.384 44.5)"/><path class="e" d="M0,1.5V0" transform="translate(115.91 44.5)"/><path class="e" d="M22.312,22.312H5.67A5.67,5.67,0,0,1,0,16.642V5.669A5.67,5.67,0,0,1,5.67,0H22.312a5.67,5.67,0,0,1,5.669,5.669V16.642A5.669,5.669,0,0,1,22.312,22.312Z" transform="translate(126.393 114.195)"/><path class="e" d="M6.061,3.03A3.03,3.03,0,1,1,3.03,0,3.03,3.03,0,0,1,6.061,3.03Z" transform="translate(133.216 122.32)"/><g transform="translate(73 58)"><path class="f" d="M11.445,17.486H10.37a1.242,1.242,0,0,1-1.121-.713L6.521,10.966H3.408v5.281a1.241,1.241,0,0,1-1.24,1.239H1.24A1.241,1.241,0,0,1,0,16.247V1.239A1.241,1.241,0,0,1,1.24,0H6.982a6.431,6.431,0,0,1,4.624,1.609,5.347,5.347,0,0,1,1.512,3.925A5.1,5.1,0,0,1,9.928,10.44l2.626,5.252a1.24,1.24,0,0,1-1.109,1.794ZM3.408,2.716V8.365H6.431a3.385,3.385,0,0,0,2.286-.706A2.6,2.6,0,0,0,9.544,5.6,2.734,2.734,0,0,0,6.482,2.716Z" transform="translate(0.854 0.886)"/><path class="f" d="M11.446,17.486H10.369a1.241,1.241,0,0,1-1.12-.713L6.521,10.966H3.408v5.281a1.241,1.241,0,0,1-1.24,1.239H1.24A1.241,1.241,0,0,1,0,16.247V1.239A1.241,1.241,0,0,1,1.24,0H6.982a6.431,6.431,0,0,1,4.625,1.609,5.347,5.347,0,0,1,1.512,3.925A5.1,5.1,0,0,1,9.928,10.44l2.626,5.252a1.239,1.239,0,0,1-1.108,1.794ZM3.408,2.716V8.365H6.431a3.386,3.386,0,0,0,2.286-.706A2.6,2.6,0,0,0,9.544,5.6,2.734,2.734,0,0,0,6.482,2.716Z" transform="translate(38.014 18.202)"/></g></g></svg>