<?xml version="1.0" encoding="UTF-8"?>
<svg width="36px" height="36px" viewBox="0 0 36 36" version="1.1" xmlns="http://www.w3.org/2000/svg" xmlns:xlink="http://www.w3.org/1999/xlink">
    <!-- Generator: Sketch 52.2 (67145) - http://www.bohemiancoding.com/sketch -->
    <title>Why JDAX/10_Info Kit_white</title>
    <desc>Created with Sketch.</desc>
    <g id="Why-JDAX/10_Info-Kit_white" stroke="none" stroke-width="1" fill="none" fill-rule="evenodd">
        <rect id="Rectangle-5" x="0" y="0" width="36" height="36"></rect>
        <polyline id="Stroke-2" stroke="#FFFFFF" stroke-width="1.5" stroke-linecap="round" stroke-linejoin="round" points="9.2199 26.155 7.4394 27.061 3.0009 27.061 3.0009 10.0615 5.9379 10.0615"></polyline>
        <path d="M7.9932,23.57695 C6.8292,23.92795 6.0012,24.28045 6.0012,24.28045 L6.0012,7.46695 C6.0012,7.46695 7.0947,6.05995 12.0012,6.05995 C16.9077,6.05995 18.0012,7.46695 18.0012,7.46695 L18.0012,12.11995" id="Stroke-3" stroke="#FFFFFF" stroke-width="1.5" stroke-linecap="round" stroke-linejoin="round"></path>
        <polyline id="Stroke-5" stroke="#FFFFFF" stroke-width="1.5" stroke-linecap="round" stroke-linejoin="round" points="26.7816 26.155 28.5621 27.061 33.0006 27.061 33.0006 10.0615 30.0636 10.0615"></polyline>
        <path d="M28.008,23.57695 C29.172,23.92795 30,24.28045 30,24.28045 L30,7.46695 C30,7.46695 28.9065,6.05995 24,6.05995 C19.0935,6.05995 18,7.46695 18,7.46695 L18,12.11995" id="Stroke-7" stroke="#FFFFFF" stroke-width="1.5" stroke-linecap="round" stroke-linejoin="round"></path>
        <path d="M23.0364,16.8064 C25.8174,19.5874 25.8174,24.0964 23.0364,26.8774 C20.2554,29.6584 15.7464,29.6584 12.9654,26.8774 C10.1844,24.0964 10.1844,19.5874 12.9654,16.8064 C15.7464,14.0254 20.2554,14.0254 23.0364,16.8064 Z" id="Stroke-9" stroke="#FFFFFF" stroke-width="1.5" stroke-linecap="round" stroke-linejoin="round"></path>
        <path d="M23.0364,26.87725 L28.0989,31.93975" id="Stroke-11" stroke="#FFFFFF" stroke-width="1.5" stroke-linecap="round" stroke-linejoin="round"></path>
    </g>
</svg>