<?xml version="1.0" encoding="UTF-8"?>
<svg width="36px" height="36px" viewBox="0 0 36 36" version="1.1" xmlns="http://www.w3.org/2000/svg" xmlns:xlink="http://www.w3.org/1999/xlink">
    <!-- Generator: Sketch 52.2 (67145) - http://www.bohemiancoding.com/sketch -->
    <title>Why JDAX/1_Multiple currency</title>
    <desc>Created with Sketch.</desc>
    <g id="Why-JDAX/1_Multiple-currency" stroke="none" stroke-width="1" fill="none" fill-rule="evenodd">
        <g id="Group" transform="translate(1.000000, 1.000000)" stroke="#FFFFFF" stroke-linecap="round" stroke-linejoin="round" stroke-width="1.5">
            <path d="M33.5094,21.6503 C33.5094,26.8673 29.2804,31.0963 24.0634,31.0963 C18.8464,31.0963 14.6174,26.8673 14.6174,21.6503 C14.6174,16.4333 18.8464,12.2043 24.0634,12.2043 C29.2804,12.2043 33.5094,16.4333 33.5094,21.6503 Z" id="Stroke-2"></path>
            <path d="M18.0324,28.9209 C16.3934,31.7209 13.3534,33.6029 9.8744,33.6029 C4.6574,33.6029 0.4284,29.3729 0.4284,24.1559 C0.4284,19.3039 4.0874,15.3059 8.7964,14.7709" id="Stroke-4"></path>
            <path d="M14.9242,19.2607 C10.7072,18.3137 7.5562,14.5467 7.5562,10.0437 C7.5562,4.8267 11.7862,0.5977 17.0022,0.5977 C22.2192,0.5977 26.4482,4.8267 26.4482,10.0437 C26.4482,10.8697 26.3422,11.6717 26.1432,12.4357" id="Stroke-6"></path>
            <path d="M30.4027,21.6503 C30.4027,25.1513 27.5647,27.9893 24.0637,27.9893 C20.5627,27.9893 17.7247,25.1513 17.7247,21.6503 C17.7247,18.1493 20.5627,15.3113 24.0637,15.3113 C27.5647,15.3113 30.4027,18.1493 30.4027,21.6503 Z" id="Stroke-12"></path>
            <path d="M15.8412,26.2988 C14.9632,28.7448 12.6222,30.4948 9.8742,30.4948 C6.3732,30.4948 3.5352,27.6568 3.5352,24.1558 C3.5352,20.6548 6.3732,17.8178 9.8742,17.8178 C10.8232,17.8178 11.7242,18.0268 12.5332,18.4008" id="Stroke-18"></path>
            <path d="M22.9391,12.2724 C23.1991,11.5794 23.3421,10.8284 23.3421,10.0434 C23.3421,6.5434 20.5041,3.7054 17.0021,3.7054 C13.5011,3.7054 10.6631,6.5434 10.6631,10.0434 C10.6631,13.2624 13.0631,15.9214 16.1711,16.3294" id="Stroke-20"></path>
        </g>
        <g id="Group-2" transform="translate(8.000000, 7.000000)" fill="#FFFFFF">
            <path d="M4.059,17.0498 C4.059,17.8138 2.86,17.7238 2.479,17.7238 L2.479,16.3738 C2.861,16.3738 4.059,16.2528 4.059,17.0498 M4.373,19.1488 C4.373,19.9878 2.936,19.8928 2.478,19.8928 L2.479,18.4048 C2.937,18.4048 4.373,18.2738 4.373,19.1488 M5.319,16.7478 C5.242,15.9468 4.551,15.6788 3.679,15.6028 L3.679,14.4918 L3.003,14.4918 L3.003,15.5728 C2.825,15.5728 2.644,15.5758 2.463,15.5798 L2.463,14.4918 L1.788,14.4918 L1.788,15.6018 C1.641,15.6048 1.497,15.6078 1.358,15.6078 L1.357,15.6048 L0.425,15.6038 L0.425,16.3248 C0.425,16.3248 0.924,16.3168 0.916,16.3248 C1.19,16.3248 1.279,16.4848 1.305,16.6208 L1.305,17.8868 C1.324,17.8868 1.348,17.8868 1.376,17.8908 L1.305,17.8908 L1.305,19.6628 C1.292,19.7488 1.242,19.8868 1.051,19.8868 C1.059,19.8948 0.559,19.8868 0.559,19.8868 L0.425,20.6938 L1.304,20.6938 C1.468,20.6948 1.629,20.6958 1.787,20.6968 L1.788,21.8208 L2.463,21.8208 L2.463,20.7098 C2.648,20.7138 2.827,20.7148 3.002,20.7148 L3.002,21.8208 L3.678,21.8208 L3.678,20.6998 C4.814,20.6348 5.61,20.3488 5.708,19.2818 C5.788,18.4228 5.384,18.0388 4.739,17.8848 C5.131,17.6848 5.376,17.3328 5.319,16.7478" id="Fill-8"></path>
            <path d="M11.8629,4.7666 C11.6309,4.6326 11.3709,4.5936 11.1129,4.5846 C10.8959,4.5776 10.5719,4.4386 10.5719,4.0446 C10.5719,3.7506 10.8109,3.5146 11.1129,3.5036 C11.3709,3.4956 11.6319,3.4556 11.8629,3.3226 C12.5169,2.9456 12.7409,2.1086 12.3629,1.4536 C11.9859,0.7996 11.1489,0.5766 10.4949,0.9536 C10.0719,1.1986 9.8109,1.6496 9.8109,2.1386 C9.8109,2.4036 9.9059,2.6476 10.0259,2.8726 C10.1269,3.0636 10.1779,3.4156 9.8319,3.6176 C9.5729,3.7656 9.2509,3.6706 9.0909,3.4136 C8.9549,3.1966 8.7909,2.9936 8.5609,2.8606 C7.9069,2.4826 7.0709,2.7066 6.6929,3.3606 C6.3149,4.0146 6.5389,4.8516 7.1929,5.2286 C7.6159,5.4736 8.1379,5.4736 8.5609,5.2286 C8.7899,5.0966 8.9549,4.8926 9.0899,4.6756 C9.2019,4.4966 9.4799,4.2696 9.8319,4.4726 C10.0889,4.6206 10.1689,4.9476 10.0259,5.2156 C9.9059,5.4426 9.8109,5.6856 9.8109,5.9516 C9.8109,6.7056 10.4239,7.3186 11.1789,7.3186 C11.9349,7.3186 12.5469,6.7056 12.5469,5.9516 C12.5469,5.4616 12.2859,5.0106 11.8629,4.7666" id="Fill-10"></path>
            <polygon id="Fill-14" points="17.0631 11.707 14.6661 15.73 17.0631 17.102 19.4601 15.73"></polygon>
            <polygon id="Fill-16" points="17.0631 19.5488 14.7041 16.2408 17.0631 17.6118 19.4221 16.2408"></polygon>
        </g>
    </g>
</svg>