<?xml version="1.0" encoding="UTF-8"?>
<svg width="36px" height="36px" viewBox="0 0 36 36" version="1.1" xmlns="http://www.w3.org/2000/svg" xmlns:xlink="http://www.w3.org/1999/xlink">
    <!-- Generator: Sketch 52.2 (67145) - http://www.bohemiancoding.com/sketch -->
    <title>Why JDAX/2_Credit card</title>
    <desc>Created with Sketch.</desc>
    <g id="Why-JDAX/2_Credit-card" stroke="none" stroke-width="1" fill="none" fill-rule="evenodd" stroke-linecap="round" stroke-linejoin="round">
        <g id="Group" transform="translate(1.000000, 6.000000)" stroke="#FFFFFF" stroke-width="1.5">
            <path d="M31.6039154,0.978546154 C32.0093,0.977238462 32.4146846,1.13416154 32.7246077,1.44146923 C33.0345308,1.7527 33.1901462,2.15677692 33.1901462,2.56608462 L33.1888385,20.9770846 C33.1901462,21.3837769 33.0345308,21.7930846 32.7233,22.0977769 C32.4133769,22.4129308 32.0093,22.5620077 31.6039154,22.5620077 L2.39660769,22.5620077 C1.99122308,22.5620077 1.58453077,22.4103154 1.27460769,22.1003923 C0.968607692,21.7930846 0.811684615,21.3837769 0.811684615,20.9770846 L0.811684615,2.56608462 C0.811684615,2.15808462 0.9673,1.75400769 1.27591538,1.44146923 C1.58453077,1.13416154 1.99253077,0.979853846 2.39660769,0.978546154 L31.6039154,0.978546154 Z" id="Stroke-4"></path>
            <polygon id="Stroke-6" points="33.1905385 9.64972308 0.812076923 9.65103077 0.812076923 5.07933846 33.1905385 5.07933846"></polygon>
            <path d="M5.24410769,18.1342923 L11.7289538,18.1342923" id="Stroke-8"></path>
            <path d="M5.24410769,14.671 L17.0473385,14.671" id="Stroke-10"></path>
            <path d="M27.7251268,18.4906385 L23.5195593,18.4906385 C23.1619576,18.4906385 22.8718077,18.1362538 22.8718077,17.7007923 L22.8718077,15.1050231 C22.8718077,14.6682538 23.1619576,14.3151769 23.5195593,14.3151769 L27.7251268,14.3151769 C28.0827285,14.3151769 28.3718077,14.6682538 28.3718077,15.1050231 L28.3718077,17.7007923 C28.3718077,18.1362538 28.0827285,18.4906385 27.7251268,18.4906385 Z" id="Stroke-12"></path>
        </g>
    </g>
</svg>