<?xml version="1.0" encoding="UTF-8"?>
<svg width="36px" height="36px" viewBox="0 0 36 36" version="1.1" xmlns="http://www.w3.org/2000/svg" xmlns:xlink="http://www.w3.org/1999/xlink">
    <!-- Generator: Sketch 52.2 (67145) - http://www.bohemiancoding.com/sketch -->
    <title>Why JDAX/3_Lowest fees</title>
    <desc>Created with Sketch.</desc>
    <g id="Why-JDAX/3_Lowest-fees" stroke="none" stroke-width="1" fill="none" fill-rule="evenodd">
        <g id="Group" transform="translate(1.000000, 2.000000)" stroke="#FFFFFF" stroke-width="1.5">
            <polyline id="Stroke-2" stroke-linecap="round" stroke-linejoin="round" points="30.531575 24.0917625 33.1400125 24.0917625 30.1288875 27.8105125 27.1177625 31.5292625 24.1066375 27.8105125 21.0955125 24.0917625 23.58495 24.0917625"></polyline>
            <path d="M24.3640813,24.0917625 L24.3640813,16.536325 C24.3640813,16.2866375 24.5659563,16.085825 24.8145813,16.085825 L29.4247688,16.085825 C29.6733938,16.085825 29.8752688,16.2866375 29.8752688,16.536325 L29.8752688,24.0917625" id="Stroke-4" stroke-linecap="square"></path>
            <path d="M18.7711875,26.754175 C14.039875,28.352175 8.602,27.2652375 4.83225,23.49655 C-0.4643125,18.1999875 -0.4643125,9.6128625 4.83225,4.3173625 C10.12775,-0.9792 18.7138125,-0.9792 24.010375,4.3173625 C26.367,6.67505 27.676,9.6851125 27.9341875,12.7653" id="Stroke-6" stroke-linecap="round" stroke-linejoin="round"></path>
            <path d="M11.4576812,8.240325 C12.3937437,9.2018875 12.3937437,10.760575 11.4576812,11.7221375 C10.5216187,12.6847625 9.00330625,12.6847625 8.06618125,11.7221375 C7.13011875,10.760575 7.13011875,9.2018875 8.06618125,8.240325 C9.00330625,7.279825 10.5216187,7.279825 11.4576812,8.240325 Z" id="Stroke-8" stroke-linecap="round" stroke-linejoin="round"></path>
            <path d="M20.775275,16.0908188 C21.7113375,17.0513188 21.7113375,18.6110687 20.775275,19.5715687 C19.8392125,20.5341937 18.3209,20.5341937 17.383775,19.5715687 C16.4477125,18.6110687 16.4477125,17.0513188 17.383775,16.0908188 C18.3209,15.1292563 19.8392125,15.1292563 20.775275,16.0908188 Z" id="Stroke-10" stroke-linecap="round" stroke-linejoin="round"></path>
            <path d="M18.9037875,7.51920625 L9.9384125,20.2925812" id="Stroke-12" stroke-linecap="round" stroke-linejoin="round"></path>
        </g>
    </g>
</svg>