<?xml version="1.0" encoding="UTF-8"?>
<svg width="36px" height="36px" viewBox="0 0 36 36" version="1.1" xmlns="http://www.w3.org/2000/svg" xmlns:xlink="http://www.w3.org/1999/xlink">
    <!-- Generator: Sketch 52.2 (67145) - http://www.bohemiancoding.com/sketch -->
    <title>Why JDAX/4_Customer support</title>
    <desc>Created with Sketch.</desc>
    <g id="Why-JDAX/4_Customer-support" stroke="none" stroke-width="1" fill="none" fill-rule="evenodd">
        <g id="Group" transform="translate(1.000000, 3.000000)" stroke="#FFFFFF" stroke-width="1.5">
            <path d="M17.09945,25.8698563 L19.1617625,25.8698563 C19.8268875,25.8698563 20.3666375,26.4096062 20.3666375,27.0747312 L20.3666375,27.7302938 C20.3666375,28.3954187 19.8268875,28.9351687 19.1617625,28.9351687 L17.09945,28.9351687 C16.434325,28.9351687 15.894575,28.3954187 15.894575,27.7302938 L15.894575,27.0747312 C15.894575,26.4096062 16.434325,25.8698563 17.09945,25.8698563 Z" id="Stroke-4"></path>
            <path d="M6.20574375,21.1363125 L3.12236875,20.44675 C1.74643125,20.1396875 0.76786875,18.9178125 0.76786875,17.507875 L0.76786875,13.9963125 C0.76786875,12.586375 1.74643125,11.3655625 3.12236875,11.0574375 L6.20574375,10.367875 L6.20574375,21.1363125 Z" id="Stroke-6" stroke-linecap="round" stroke-linejoin="round"></path>
            <path d="M6.19788125,21.1363125 L6.19788125,9.9481875 C6.19788125,4.6250625 10.5126938,0.3091875 15.8358188,0.3091875 L18.1637563,0.3091875 C23.4868813,0.3091875 27.8016938,4.6250625 27.8016938,9.9481875 L27.8016938,21.2914375 C27.8016938,24.618125 24.6821938,27.733375 21.3555063,27.733375" id="Stroke-8" stroke-linecap="round"></path>
            <path d="M27.7942563,21.1363125 L30.8776313,20.44675 C32.2535688,20.1396875 33.2321313,18.9178125 33.2321313,17.507875 L33.2321313,13.9963125 C33.2321313,12.586375 32.2535688,11.3655625 30.8776313,11.0574375 L27.7942563,10.367875 L27.7942563,21.1363125 Z" id="Stroke-10" stroke-linecap="round" stroke-linejoin="round"></path>
        </g>
    </g>
</svg>