<?xml version="1.0" encoding="UTF-8"?>
<svg width="36px" height="36px" viewBox="0 0 36 36" version="1.1" xmlns="http://www.w3.org/2000/svg" xmlns:xlink="http://www.w3.org/1999/xlink">
    <!-- Generator: Sketch 52.2 (67145) - http://www.bohemiancoding.com/sketch -->
    <title>Why JDAX/5_Wallets</title>
    <desc>Created with Sketch.</desc>
    <g id="Why-JDAX/5_Wallets" stroke="none" stroke-width="1" fill="none" fill-rule="evenodd">
        <g id="Group" transform="translate(2.000000, 2.000000)" stroke="#FFFFFF" stroke-width="1.5">
            <path d="M30.8788984,23.2315742 L20.30985,23.2315742 C19.3102694,23.2315742 18.4991081,22.4204129 18.4991081,21.4208323 L18.4991081,17.4400742 C18.4991081,16.4404935 19.3102694,15.6293323 20.30985,15.6293323 L30.8788984,15.6293323 C31.878479,15.6293323 32.6896403,16.4404935 32.6896403,17.4400742 L32.6896403,21.4208323 C32.6896403,22.4204129 31.878479,23.2315742 30.8788984,23.2315742 Z" id="Stroke-2"></path>
            <path d="M24.209971,19.3908532 C24.209971,20.1764661 23.5728581,20.813579 22.7872452,20.813579 C22.0000355,20.813579 21.3645194,20.1764661 21.3645194,19.3908532 C21.3645194,18.6052403 22.0000355,17.9665306 22.7872452,17.9665306 C23.5728581,17.9665306 24.209971,18.6052403 24.209971,19.3908532 Z" id="Stroke-4"></path>
            <path d="M7.40200645,7.7019871 L24.6327968,3.20387419 C25.5461516,2.96435806 26.4786677,3.51045484 26.7181839,4.42380968 L27.5453129,7.59500323" id="Stroke-6"></path>
            <path d="M30.8059258,23.2315742 L30.8059258,29.4558 C30.8059258,30.4010903 30.041071,31.1659452 29.0973774,31.1659452 L2.44402258,31.1659452 C1.50032903,31.1659452 0.735474194,30.4010903 0.735474194,29.4558 L0.735474194,9.40350968 C0.735474194,8.45981613 1.50032903,7.69655806 2.44402258,7.69655806 L29.0973774,7.69655806 C30.041071,7.69655806 30.8059258,8.45981613 30.8059258,9.40350968 L30.8059258,15.6293323" id="Stroke-8"></path>
            <path d="M4.01860161,7.69256613 L17.8945694,0.791308065 C18.7392629,0.371356452 19.7643919,0.716259677 20.1843435,1.55935645 L21.3771339,3.95771129" id="Stroke-10"></path>
        </g>
    </g>
</svg>