<?xml version="1.0" encoding="UTF-8"?>
<svg width="36px" height="36px" viewBox="0 0 36 36" version="1.1" xmlns="http://www.w3.org/2000/svg" xmlns:xlink="http://www.w3.org/1999/xlink">
    <!-- Generator: Sketch 52.2 (67145) - http://www.bohemiancoding.com/sketch -->
    <title>Why JDAX/8_Mobile app</title>
    <desc>Created with Sketch.</desc>
    <g id="Why-JDAX/8_Mobile-app" stroke="none" stroke-width="1" fill="none" fill-rule="evenodd" stroke-linecap="round" stroke-linejoin="round">
        <g id="Group" transform="translate(9.000000, 2.000000)" stroke="#FFFFFF" stroke-width="1.5">
            <path d="M15.7384794,0.571428571 L2.26376719,0.571428571 C1.25312044,0.571428571 0.431428228,1.36186608 0.431428228,2.33946849 L0.431428228,29.6622026 C0.431428228,30.6381339 1.25312044,31.4285714 2.26376719,31.4285714 L15.7384794,31.4285714 C16.7491261,31.4285714 17.5742854,30.6381339 17.5742854,29.6622026 L17.5742854,2.33946849 C17.5742854,1.36186608 16.7491261,0.571428571 15.7384794,0.571428571 Z" id="Stroke-2"></path>
            <path d="M0.431428228,24.5714286 L17.5742854,24.5714286" id="Stroke-4"></path>
            <path d="M0.431428228,5.71428571 L17.5742854,5.71428571" id="Stroke-6"></path>
            <path d="M7.09879966,3.1672 L10.9079425,3.1672" id="Stroke-8"></path>
            <path d="M9.0064568,29.5243429 C8.20417109,29.5243429 7.55617109,28.8763429 7.55617109,28.0757714 C7.55617109,27.2769143 8.20417109,26.6306286 9.0064568,26.6306286 C9.80531394,26.6306286 10.4515997,27.2769143 10.4515997,28.0757714 C10.4515997,28.8763429 9.80531394,29.5243429 9.0064568,29.5243429 Z" id="Stroke-10"></path>
        </g>
    </g>
</svg>