<?xml version="1.0" encoding="UTF-8"?>
<svg width="36px" height="36px" viewBox="0 0 36 36" version="1.1" xmlns="http://www.w3.org/2000/svg" xmlns:xlink="http://www.w3.org/1999/xlink">
    <!-- Generator: Sketch 52.3 (67297) - http://www.bohemiancoding.com/sketch -->
    <title>Social/Blog</title>
    <desc>Created with Sketch.</desc>
    <g id="Social/Blog" stroke="none" stroke-width="1" fill="none" fill-rule="evenodd">
        <path d="M18,0 C27.9411255,-1.82615513e-15 36,8.0588745 36,18 C36,27.9411255 27.9411255,36 18,36 C8.0588745,36 1.21743675e-15,27.9411255 0,18 C-1.21743675e-15,8.0588745 8.0588745,1.82615513e-15 18,0 Z M10.1152344,22.0913086 C11.6030273,22.0913086 12.5161133,20.9365234 12.5161133,19.0351562 C12.5161133,17.1230469 11.6137695,15.9790039 10.1152344,15.9790039 C9.30419922,15.9790039 8.63818359,16.3710938 8.33740234,17.0209961 L8.24072266,17.0209961 L8.24072266,13.8144531 L6.67773438,13.8144531 L6.67773438,22 L8.19238281,22 L8.19238281,21.0708008 L8.2890625,21.0708008 C8.60595703,21.715332 9.27734375,22.0913086 10.1152344,22.0913086 Z M9.57275391,17.2895508 C10.3999023,17.2895508 10.9101562,17.9555664 10.9101562,19.0351562 C10.9101562,20.1201172 10.4052734,20.7861328 9.57275391,20.7861328 C8.74560547,20.7861328 8.22998047,20.1147461 8.22460938,19.0405273 C8.22998047,17.9609375 8.75097656,17.2895508 9.57275391,17.2895508 Z M13.8427734,22 L15.4057617,22 L15.4057617,13.8144531 L13.8427734,13.8144531 L13.8427734,22 Z M19.6542969,22.1289062 C21.4750977,22.1289062 22.5708008,20.9741211 22.5708008,19.0351562 C22.5708008,17.1123047 21.4589844,15.9467773 19.6542969,15.9467773 C17.8496094,15.9467773 16.737793,17.1176758 16.737793,19.0351562 C16.737793,20.9741211 17.8334961,22.1289062 19.6542969,22.1289062 Z M19.6542969,20.8505859 C18.8164062,20.8505859 18.34375,20.1899414 18.34375,19.0351562 C18.34375,17.8964844 18.8217773,17.2250977 19.6542969,17.2250977 C20.4814453,17.2250977 20.9648438,17.8964844 20.9648438,19.0351562 C20.9648438,20.1845703 20.4868164,20.8505859 19.6542969,20.8505859 Z M26.4755859,20.6787109 C25.6269531,20.6787109 25.1435547,20.0288086 25.1435547,18.9814453 C25.1435547,17.9448242 25.6323242,17.2895508 26.4755859,17.2895508 C27.3188477,17.2895508 27.8291016,17.9448242 27.8291016,18.9868164 C27.8291016,20.0288086 27.3242188,20.6787109 26.4755859,20.6787109 Z M26.4541016,24.2451172 C28.2426758,24.2451172 29.3759766,23.3696289 29.3759766,21.9785156 L29.3759766,16.0756836 L27.8613281,16.0756836 L27.8613281,17.0263672 L27.7646484,17.0263672 C27.4477539,16.3764648 26.765625,15.9790039 25.965332,15.9790039 C24.4614258,15.9790039 23.5375977,17.1499023 23.5375977,18.9868164 C23.5375977,20.7700195 24.4560547,21.9140625 25.9331055,21.9140625 C26.765625,21.9140625 27.3886719,21.5810547 27.7163086,20.9580078 L27.8129883,20.9580078 L27.8129883,22.0537109 C27.8129883,22.7197266 27.3242188,23.1064453 26.4863281,23.1064453 C25.8095703,23.1064453 25.3691406,22.8754883 25.2885742,22.5102539 L23.7416992,22.5102539 C23.8383789,23.5522461 24.8803711,24.2451172 26.4541016,24.2451172 Z" id="Combined-Shape" fill="#646C78"></path>
    </g>
</svg>