<?xml version="1.0" encoding="UTF-8"?>
<svg width="36px" height="36px" viewBox="0 0 36 36" version="1.1" xmlns="http://www.w3.org/2000/svg" xmlns:xlink="http://www.w3.org/1999/xlink">
    <!-- Generator: Sketch 52.3 (67297) - http://www.bohemiancoding.com/sketch -->
    <title>Social/Twitter</title>
    <desc>Created with Sketch.</desc>
    <g id="Social/Twitter" stroke="none" stroke-width="1" fill="none" fill-rule="evenodd">
        <path d="M0,18 C0,8.05887401 8.05887401,0 18,0 C27.941126,0 36,8.05887401 36,18 C36,27.941126 27.941126,36 18,36 C8.05887401,36 0,27.941126 0,18 Z M27.75,12.9811998 C27.0877573,13.2749019 26.3760146,13.473426 25.6290146,13.5625762 C26.3913495,13.1056432 26.9770049,12.3821332 27.2526845,11.5199403 C26.5391068,11.9430652 25.7488107,12.250308 24.9076165,12.4158539 C24.2340146,11.6982844 23.2742476,11.25 22.2120728,11.25 C19.8283835,11.25 18.0760922,13.4739938 18.6148252,15.7833813 C15.5456505,15.6294542 12.8245049,14.1595025 11.0031408,11.9258554 C10.0357718,13.5849401 10.5013689,15.7561689 12.145966,16.8551056 C11.5406942,16.8359739 10.9711165,16.6698601 10.4733204,16.3932368 C10.4332573,18.1038198 11.6593107,19.7033255 13.4352379,20.060101 C12.9155097,20.2014921 12.3462379,20.2338587 11.7676165,20.1233055 C12.2374515,21.5900686 13.6013447,22.6575122 15.2173252,22.6872581 C13.6647379,23.9036931 11.7092913,24.4470244 9.75,24.2161774 C11.3842427,25.2637031 13.3254029,25.875 15.4108689,25.875 C22.2671214,25.875 26.1407476,20.0852168 25.9072718,14.8924035 C26.6288883,14.371873 27.2549126,13.7216138 27.75,12.9811998 Z" id="Combined-Shape" fill="#646C78"></path>
    </g>
</svg>