<?xml version="1.0" encoding="UTF-8"?>
<svg width="184px" height="39px" viewBox="0 0 184 39" version="1.1" xmlns="http://www.w3.org/2000/svg" xmlns:xlink="http://www.w3.org/1999/xlink">
    <!-- Generator: Sketch 52.3 (67297) - http://www.bohemiancoding.com/sketch -->
    <title>Group 30</title>
    <desc>Created with Sketch.</desc>
    <g id="Page-1" stroke="none" stroke-width="1" fill="none" fill-rule="evenodd">
        <g id="Home" transform="translate(-635.000000, -757.000000)">
            <g id="S2_BTC" transform="translate(0.000000, 725.000000)">
                <g id="Prices">
                    <g id="b3" transform="translate(576.000000, 0.000000)">
                        <g id="Group-30" transform="translate(53.000000, 26.000000)">
                            <g id="Group-18" transform="translate(7.000000, 28.000000)">
                                <text id="R-13.76" font-family="SFProText-Regular, SF Pro Text" font-size="16" font-weight="normal" line-spacing="21">
                                    <tspan x="0" y="15" fill="#8D95A2">R </tspan>
                                    <tspan x="14.96875" y="15" fill="#FFFFFF">13.76</tspan>
                                </text>
                                <text id="4.15%" font-family="SFCompactText-Bold, SF Compact Text" font-size="10" font-weight="bold" fill="#82D739">
                                    <tspan x="63" y="16">4.15%</tspan>
                                </text>
                            </g>
                            <g id="Group-25">
                                <text id="Ripple" font-family="SFCompactText-Bold, SF Compact Text" font-size="12" font-weight="bold" letter-spacing="0.360000014" fill="#FAFAFA">
                                    <tspan x="25" y="16">RIPPLE</tspan>
                                </text>
                                <g id="Wallet/5_XRP_white">
                                    <path d="M12.0002857,24 C5.37244351,24 0,18.6275565 0,11.9997143 C0,5.37244351 5.37244351,0 12.0002857,0 C18.6275565,0 24,5.37244351 24,11.9997143 C24,18.6275565 18.6275565,24 12.0002857,24 Z" id="Fill-23"></path>
                                    <path d="M15.8107388,13.3233809 C15.3866765,13.0783318 14.9085125,13.0083177 14.4351221,12.9908142 C14.0381108,12.9764932 13.4461739,12.7226923 13.4461739,12.0002748 C13.4461739,11.4624397 13.8821704,11.0288301 14.4351221,11.0097353 C14.9093081,10.9930274 15.3866765,10.9222178 15.8107388,10.6771687 C17.0097291,9.98578011 17.4202659,8.45263192 16.7280817,7.25364162 C16.0358975,6.05465131 14.5027493,5.64411448 13.3045546,6.33629867 C12.528831,6.78343374 12.0514626,7.61087231 12.0514626,8.50673368 C12.0514626,8.99285383 12.2241108,9.43919329 12.4444959,9.85370819 C12.629874,10.2021871 12.7237564,10.8498169 12.0880608,11.216595 C11.6154661,11.4894906 11.0251205,11.3168423 10.7299477,10.8450432 C10.4809205,10.4464406 10.1801784,10.072502 9.76009424,9.82983977 C8.56110393,9.13765558 7.02795574,9.54898802 6.33577156,10.7471827 C5.64438299,11.946173 6.05491981,13.4785256 7.25311451,14.1707098 C8.02883816,14.6186405 8.98437058,14.6186405 9.76009424,14.1707098 C10.1801784,13.9280475 10.4809205,13.5549045 10.7299477,13.1563019 C10.9344205,12.8301002 11.4444091,12.4124028 12.0880608,12.7847502 C12.5598599,13.0576458 12.7062529,13.6551519 12.4444959,14.147637 C12.2241108,14.5621519 12.0514626,15.0084913 12.0514626,15.4946115 C12.0514626,16.8781843 13.1732783,18 14.5576467,18 C15.9420151,18 17.0638308,16.8781843 17.0638308,15.4946115 C17.0638308,14.5987501 16.5864624,13.7705159 15.8107388,13.3233809" id="Fill-26" fill="#8D95A2" fill-rule="evenodd"></path>
                                </g>
                            </g>
                            <path d="M129,32 C129.333333,31.3333333 129.666667,31 130,31 C130.333333,31 130.666667,31.3333333 131,32 C131.333333,32.6666667 131.666667,33 132,33 C132.333333,33 132.666667,32.6666667 133,32 C133.666667,31.3333333 134.333333,31 135,31 C135.666667,31 136.333333,31.3333333 137,32 L139,36 C139.628935,37.0976514 140.295602,37.4309847 141,37 C142.056597,36.3535229 142.248101,34 144,34 C145.167933,34 146.167933,35 147,37 L150,36 L153,34 L154,34 C154.411927,32.6808189 154.74526,32.0141522 155,32 C155.38211,31.9787717 156,35 157,33 C158,31 159.128964,28.0386579 160,28 C160.280884,27.9875339 160.614217,28.3208673 161,29 C162.333333,30.3333333 163.333333,30.3333333 164,29 C165,27 165,24 167,23 C169,22 169.5,23.5 170,24 C170.5,24.5 171,26 172,26 C172.666667,26 173.666667,25 175,23 C175.666667,22.3333333 176.333333,22 177,22 C178,22 178,24 180,22 C181.333333,20.6666667 182.666667,19.6666667 184,19 L189,11" id="Line-3-Copy-3" stroke="#B5BDCA" stroke-width="1.5" stroke-linecap="round" stroke-linejoin="round"></path>
                        </g>
                    </g>
                </g>
            </g>
        </g>
    </g>
</svg>