<?xml version="1.0" encoding="UTF-8"?>
<svg width="184px" height="42px" viewBox="0 0 184 42" version="1.1" xmlns="http://www.w3.org/2000/svg" xmlns:xlink="http://www.w3.org/1999/xlink">
    <!-- Generator: Sketch 52.3 (67297) - http://www.bohemiancoding.com/sketch -->
    <title>Group 31</title>
    <desc>Created with Sketch.</desc>
    <g id="Page-1" stroke="none" stroke-width="1" fill="none" fill-rule="evenodd">
        <g id="Home" transform="translate(-923.000000, -756.000000)">
            <g id="S2_BTC" transform="translate(0.000000, 725.000000)">
                <g id="Prices">
                    <g id="b4" transform="translate(864.000000, 0.000000)">
                        <g id="Group-31" transform="translate(53.000000, 26.000000)">
                            <g id="Group-21" transform="translate(7.000000, 28.000000)">
                                <text id="R-18,779" font-family="SFProText-Regular, SF Pro Text" font-size="16" font-weight="normal" line-spacing="21">
                                    <tspan x="0" y="15" fill="#8D95A2">R </tspan>
                                    <tspan x="14.96875" y="15" fill="#FFFFFF">18,779</tspan>
                                </text>
                                <text id="9.55%" font-family="SFCompactText-Bold, SF Compact Text" font-size="10" font-weight="bold" fill="#82D739">
                                    <tspan x="72" y="16">9.55%</tspan>
                                </text>
                            </g>
                            <g id="Group-26">
                                <text id="Bitcoin-cash" font-family="SFCompactText-Bold, SF Compact Text" font-size="12" font-weight="bold" letter-spacing="0.360000014" fill="#FAFAFA">
                                    <tspan x="25" y="16">BITCOIN CASH</tspan>
                                </text>
                                <g id="Wallet/6_BCH_white">
                                    <path d="M12.0002857,24 C5.37244351,24 0,18.6275565 0,11.9997143 C0,5.37244351 5.37244351,0 12.0002857,0 C18.6275565,0 24,5.37244351 24,11.9997143 C24,18.6275565 18.6275565,24 12.0002857,24 Z" id="Fill-23"></path>
                                    <path d="M13.9392082,9.94767959 C13.9386591,11.3364198 11.7586281,11.1744275 11.0650817,11.1744275 L11.0650817,8.7198334 C11.7591772,8.7198334 13.9392082,8.49908466 13.9392082,9.94767959 M14.5108486,13.7663032 C14.5113977,15.292874 11.897557,15.1193502 11.0639834,15.1198993 L11.0645326,12.4132562 C11.8981061,12.4132562 14.5108486,12.1743863 14.5108486,13.7663032 M16.231261,9.39855338 C16.0912338,7.94281982 14.8342839,7.4540975 13.2473092,7.31516857 L13.2478583,5.29493327 L12.0178156,5.29493327 L12.0178156,7.26190333 C11.6949294,7.26190333 11.3643555,7.26794372 11.035978,7.27508236 L11.0365271,5.29493327 L9.8081318,5.29493327 L9.80703355,7.31407032 C9.54125647,7.31956158 9.27987239,7.32450371 9.02452871,7.32505284 L9.02452871,7.31846333 L7.328827,7.3179142 L7.328827,8.63087495 C7.328827,8.63087495 8.23708173,8.61330291 8.2217062,8.63032583 C8.71976367,8.63087495 8.88230502,8.91971533 8.92898075,9.16901863 L8.92898075,11.4698574 C8.96302658,11.4698574 9.00805492,11.4715048 9.05912366,11.4786434 C9.0179392,11.4786434 8.9740091,11.4780943 8.92898075,11.4786434 L8.92843162,14.7020143 C8.90646658,14.8585152 8.81421337,15.1083676 8.46661649,15.1089168 C8.48199202,15.123194 7.57263903,15.1089168 7.57263903,15.1089168 L7.32827787,16.5772802 L8.92843162,16.5772802 C9.22605803,16.5778294 9.51874229,16.5827715 9.80648442,16.5844189 L9.80703355,18.6277175 L11.0348797,18.6277175 L11.0348797,16.6063839 C11.3725924,16.6135226 11.6987733,16.6162682 12.0172665,16.6162682 L12.0167174,18.6282666 L13.2456618,18.6282666 L13.2467601,16.5888119 C15.313122,16.4702006 16.7600695,15.9501781 16.9401829,14.009017 C17.0851522,12.4462038 16.3498723,11.7482644 15.1763896,11.4665627 C15.8897045,11.1035902 16.3350458,10.4638582 16.231261,9.39855338" id="Fill-24" fill="#8D95A2" fill-rule="evenodd" transform="translate(12.143311, 11.961600) rotate(-15.000000) translate(-12.143311, -11.961600) "></path>
                                </g>
                            </g>
                            <path d="M129,36 C129,36 129.333333,35.6666667 130,35 C131,34 130.748276,37 132,37 C133.251724,37 133,35 135,35 C136.333333,35 138,36.3333333 140,39 L143,37 L145,39 C147,37.5306122 148.333333,36.829932 149,36.8979592 C150,37 150.640776,38.0372254 152,38 C152.722725,37.9802066 154,36 155,35 C155.666667,34.3333333 156.333333,32.6666667 157,30 L160,27 L162.288478,27.7102173 L165,25 L167,21 C167.411105,21.49242 167.744438,21.8257534 168,22 C168.067311,22.0458936 168.996959,19.3308231 170,20 C170.376181,20.2509686 171.346762,21.3326965 172.911742,23.2451837 L175,20 L177.038127,18.6897753 L178.379618,19.8273882 L181.841553,16.9499174 L184.146472,17.8653019 L186.596865,13.3992285 L189,11" id="Line-3-Copy-4" stroke="#B5BDCA" stroke-width="1.5" stroke-linecap="round" stroke-linejoin="round"></path>
                        </g>
                    </g>
                </g>
            </g>
        </g>
    </g>
</svg>