<?xml version="1.0" encoding="UTF-8"?>
<svg width="184px" height="42px" viewBox="0 0 184 42" version="1.1" xmlns="http://www.w3.org/2000/svg" xmlns:xlink="http://www.w3.org/1999/xlink">
    <!-- Generator: Sketch 52.3 (67297) - http://www.bohemiancoding.com/sketch -->
    <title>Group 28</title>
    <desc>Created with Sketch.</desc>
    <g id="Page-1" stroke="none" stroke-width="1" fill="none" fill-rule="evenodd">
        <g id="Home" transform="translate(-59.000000, -756.000000)">
            <g id="S2_BTC" transform="translate(0.000000, 725.000000)">
                <g id="Prices">
                    <g id="b1">
                        <g id="Group-28" transform="translate(53.000000, 26.000000)">
                            <g id="Group-9" transform="translate(7.000000, 28.000000)">
                                <text id="R-136,599" font-family="SFProText-Regular, SF Pro Text" font-size="16" font-weight="normal" line-spacing="21">
                                    <tspan x="0" y="15" fill="#8D95A2">R </tspan>
                                    <tspan x="14.96875" y="15" fill="#FFFFFF">136,599</tspan>
                                </text>
                                <text id="-1.26%" font-family="SFCompactText-Bold, SF Compact Text" font-size="10" font-weight="bold" fill="#FB4227">
                                    <tspan x="84" y="16">-1.26%</tspan>
                                </text>
                            </g>
                            <g id="Group-23">
                                <text id="Bitcoin" font-family="SFCompactText-Bold, SF Compact Text" font-size="12" font-weight="bold" letter-spacing="0.360000014" fill="#FAFAFA">
                                    <tspan x="25" y="16">BITCOIN</tspan>
                                </text>
                                <g id="Wallet/3_BTC_white">
                                    <path d="M12.0002857,24 C5.37244351,24 0,18.6275565 0,11.9997143 C0,5.37244351 5.37244351,0 12.0002857,0 C18.6275565,0 24,5.37244351 24,11.9997143 C24,18.6275565 18.6275565,24 12.0002857,24 Z" id="Fill-23"></path>
                                    <path d="M13.9442637,9.98607965 C13.9437146,11.3748198 11.7636835,11.2128276 11.0701371,11.2128276 L11.0701371,8.75823346 C11.7642327,8.75823346 13.9442637,8.53748473 13.9442637,9.98607965 M14.5159041,13.8047033 C14.5164532,15.3312741 11.9026125,15.1577502 11.0690389,15.1582994 L11.069588,12.4516563 C11.9031616,12.4516563 14.5159041,12.2127864 14.5159041,13.8047033 M16.2363165,9.43695345 C16.0962893,7.98121988 14.8393394,7.49249756 13.2523647,7.35356863 L13.2529138,5.33333333 L12.0228711,5.33333333 L12.0228711,7.30030339 C11.6999849,7.30030339 11.3694109,7.30634378 11.0410335,7.31348242 L11.0415826,5.33333333 L9.81318727,5.33333333 L9.81208901,7.35247038 C9.54631193,7.35796164 9.28492786,7.36290378 9.02958417,7.36345291 L9.02958417,7.35686339 L7.33388246,7.35631426 L7.33388246,8.66927502 C7.33388246,8.66927502 8.2421372,8.65170298 8.22676167,8.66872589 C8.72481913,8.66927502 8.88736049,8.9581154 8.93403621,9.2074187 L8.93403621,11.5082575 C8.96808204,11.5082575 9.01311039,11.5099049 9.06417912,11.5170435 C9.02299466,11.5170435 8.97906456,11.5164944 8.93403621,11.5170435 L8.93348709,14.7404143 C8.91152204,14.8969153 8.81926884,15.1467677 8.47167195,15.1473168 C8.48704749,15.1615941 7.57769449,15.1473168 7.57769449,15.1473168 L7.33333333,16.6156803 L8.93348709,16.6156803 C9.23111349,16.6162294 9.52379776,16.6211716 9.81153989,16.6228189 L9.81208901,18.6661175 L11.0399352,18.6661175 L11.0399352,16.644784 C11.3776478,16.6519226 11.7038288,16.6546683 12.022322,16.6546683 L12.0217729,18.6666667 L13.2507173,18.6666667 L13.2518155,16.6272119 C15.3181775,16.5086007 16.765125,15.9885782 16.9452384,14.047417 C17.0902077,12.4846039 16.3549277,11.7866645 15.181445,11.5049627 C15.89476,11.1419903 16.3401013,10.5022583 16.2363165,9.43695345" id="Fill-24" fill="#8D95A2" fill-rule="evenodd" transform="translate(12.148366, 12.000000) rotate(15.000000) translate(-12.148366, -12.000000) "></path>
                                </g>
                            </g>
                            <path d="M129,27.0040487 L131,28.0040487 L133,26.0040487 C133.883961,27.3293576 134.550628,27.9960242 135,28.0040487 C135.083888,28.0055467 135.779395,27.9951488 137.086521,27.972855 C137.474658,27.9662351 137.329505,29.0160655 138,29.0040487 C138.313217,28.9984352 138.64655,29.6651019 139,31.0040487 L143,27.972855 L145,29.0040487 L148,28.0040487 L150,27.972855 L153,27.0040487 L155,24.0040487 L156,22.0040487 L158,25.0040487 C158.666667,21.6707154 159.333333,20.0040487 160,20.0040487 C161,20.0040487 160.700413,21.2631079 161.900786,20.4628592 C163.101159,19.6626105 162.297915,18.1079861 163,18.0040487 C163.702085,17.9001114 164.304979,19.8302935 165,20.0040487 C165.463347,20.1198856 166.130014,19.7865522 167,19.0040487 L173,23.0040487 C174.333333,21.3099224 175.666667,20.4628592 177,20.4628592 C178.333333,20.4628592 180.537962,21.6646003 183.613885,24.0680824 C183.871295,23.3587266 184.333333,23.0040487 185,23.0040487 C185.666667,23.0040487 187,24.3373821 189,27.0040487" id="Line-3" stroke="#B5BDCA" stroke-width="1.5" stroke-linecap="round" stroke-linejoin="round"></path>
                        </g>
                    </g>
                </g>
            </g>
        </g>
    </g>
</svg>