<?xml version="1.0" encoding="UTF-8"?>
<svg width="182px" height="40px" viewBox="0 0 182 40" version="1.1" xmlns="http://www.w3.org/2000/svg" xmlns:xlink="http://www.w3.org/1999/xlink">
    <!-- Generator: Sketch 52.3 (67297) - http://www.bohemiancoding.com/sketch -->
    <title>Group 32</title>
    <desc>Created with Sketch.</desc>
    <g id="Page-1" stroke="none" stroke-width="1" fill="none" fill-rule="evenodd">
        <g id="Home" transform="translate(-1213.000000, -758.000000)">
            <g id="S2_BTC" transform="translate(0.000000, 725.000000)">
                <g id="Prices">
                    <g id="b5" transform="translate(1152.000000, 0.000000)">
                        <g id="Group-32" transform="translate(53.000000, 26.000000)">
                            <g id="Group-22" transform="translate(7.000000, 28.000000)">
                                <text id="R-2,793" font-family="SFProText-Regular, SF Pro Text" font-size="16" font-weight="normal" line-spacing="21">
                                    <tspan x="0" y="15" fill="#8D95A2">R </tspan>
                                    <tspan x="14.96875" y="15" fill="#FFFFFF">2,793</tspan>
                                </text>
                                <text id="7.42%" font-family="SFCompactText-Bold, SF Compact Text" font-size="10" font-weight="bold" fill="#82D739">
                                    <tspan x="65" y="16">7.42%</tspan>
                                </text>
                            </g>
                            <g id="Group-27">
                                <text id="Litecoin" font-family="SFCompactText-Bold, SF Compact Text" font-size="12" font-weight="bold" letter-spacing="0.360000014" fill="#FAFAFA">
                                    <tspan x="25" y="16">LITECOIN</tspan>
                                </text>
                                <g id="Wallet/7_LTC_white">
                                    <path d="M12.0002857,24 C5.37244351,24 0,18.6275565 0,11.9997143 C0,5.37244351 5.37244351,0 12.0002857,0 C18.6275565,0 24,5.37244351 24,11.9997143 C24,18.6275565 18.6275565,24 12.0002857,24 Z" id="Fill-23"></path>
                                    <polygon id="Fill-16" fill="#8D95A2" fill-rule="evenodd" points="11.1803982 15.1219272 11.74382 12.4385447 14.5923943 10.4857424 14.9257276 8.89085546 12.0771534 10.8515241 12.8863962 7 10.698589 7 9.52258109 12.6096362 8.32494097 13.4336283 8.04667155 14.9734513 9.19219761 14.1878073 8.60321039 17 15.6120599 17 16.0014405 15.1219272"></polygon>
                                </g>
                            </g>
                            <path d="M129,32 L132,35 L137,33 L140,36 L143,34 C143.624275,36.0301727 144.290942,37.0301727 145,37 C145.182219,36.992246 145.974191,34.1803718 148,34.0004899 C148.704193,33.937961 148.660818,35.0833512 150,35 C150.470366,34.9707243 150.289314,33.049363 151,33 C151.677323,32.9529543 152.655768,33.9996707 154,34 C156,34.0004899 154,19 157,19 C157.671889,19 156.699857,20 158,20 C158.666667,20 159.333333,19 160,17 C160.150099,18.8062614 160.849408,19.5013059 162.097925,19.0851335 C163.346442,18.6689611 164.647134,17.3072499 166,15 L167,13 L168,15 L169.690876,16.3688045 L172,20 L175,16 C175.353923,16.2458697 176.02059,16.3688045 177,16.3688045 C177.97941,16.3688045 178.97941,16.2458697 180,16 L182,14 L184,16 L186,13 C186,11.6666667 186.333333,11 187,11 C187.666667,11 188.333333,11 189,11" id="Line-3-Copy" stroke="#B5BDCA" stroke-width="1.5" stroke-linecap="round" stroke-linejoin="round"></path>
                        </g>
                    </g>
                </g>
            </g>
        </g>
    </g>
</svg>